solid OpenSCAD_Model
  facet normal -0.998629 -0.0523455 0
    outer loop
      vertex 5.925 15.875 1
      vertex 5.90993 16.1625 6.35
      vertex 5.90993 16.1625 1
    endloop
  endfacet
  facet normal -0.998629 -0.0523455 0
    outer loop
      vertex 5.90993 16.1625 6.35
      vertex 5.925 15.875 1
      vertex 5.925 15.875 6.35
    endloop
  endfacet
  facet normal 0.99863 -0.0523282 0
    outer loop
      vertex 0.424999 15.875 6.35
      vertex 0.440064 16.1625 1
      vertex 0.440064 16.1625 6.35
    endloop
  endfacet
  facet normal 0.99863 -0.0523282 0
    outer loop
      vertex 0.440064 16.1625 1
      vertex 0.424999 15.875 6.35
      vertex 0.424999 15.875 1
    endloop
  endfacet
  facet normal -0.0524585 -0.998623 0
    outer loop
      vertex 3.175 18.625 1
      vertex 3.46245 18.6099 6.35
      vertex 3.175 18.625 6.35
    endloop
  endfacet
  facet normal -0.0524585 -0.998623 -0
    outer loop
      vertex 3.46245 18.6099 6.35
      vertex 3.175 18.625 1
      vertex 3.46245 18.6099 1
    endloop
  endfacet
  facet normal -0.0524585 0.998623 0
    outer loop
      vertex 3.46245 13.1401 1
      vertex 3.175 13.125 6.35
      vertex 3.46245 13.1401 6.35
    endloop
  endfacet
  facet normal -0.0524585 0.998623 0
    outer loop
      vertex 3.175 13.125 6.35
      vertex 3.46245 13.1401 1
      vertex 3.175 13.125 1
    endloop
  endfacet
  facet normal -0.707037 -0.707176 0
    outer loop
      vertex 5.21865 17.7151 1
      vertex 5.01511 17.9186 6.35
      vertex 5.01511 17.9186 1
    endloop
  endfacet
  facet normal -0.707037 -0.707176 0
    outer loop
      vertex 5.01511 17.9186 6.35
      vertex 5.21865 17.7151 1
      vertex 5.21865 17.7151 6.35
    endloop
  endfacet
  facet normal 0.629428 -0.777059 0
    outer loop
      vertex 1.33489 17.9186 1
      vertex 1.55859 18.0998 6.35
      vertex 1.33489 17.9186 6.35
    endloop
  endfacet
  facet normal 0.629428 -0.777059 0
    outer loop
      vertex 1.55859 18.0998 6.35
      vertex 1.33489 17.9186 1
      vertex 1.55859 18.0998 1
    endloop
  endfacet
  facet normal 0.358502 -0.933529 0
    outer loop
      vertex 2.05647 18.3872 1
      vertex 2.3252 18.4904 6.35
      vertex 2.05647 18.3872 6.35
    endloop
  endfacet
  facet normal 0.358502 -0.933529 0
    outer loop
      vertex 2.3252 18.4904 6.35
      vertex 2.05647 18.3872 1
      vertex 2.3252 18.4904 1
    endloop
  endfacet
  facet normal -0.891025 0.453954 0
    outer loop
      vertex 5.55657 14.5 1
      vertex 5.68725 14.7565 6.35
      vertex 5.68725 14.7565 1
    endloop
  endfacet
  facet normal -0.891025 0.453954 0
    outer loop
      vertex 5.68725 14.7565 6.35
      vertex 5.55657 14.5 1
      vertex 5.55657 14.5 6.35
    endloop
  endfacet
  facet normal -0.891025 -0.453954 0
    outer loop
      vertex 5.68725 16.9935 1
      vertex 5.55657 17.25 6.35
      vertex 5.55657 17.25 1
    endloop
  endfacet
  facet normal -0.891025 -0.453954 0
    outer loop
      vertex 5.55657 17.25 6.35
      vertex 5.68725 16.9935 1
      vertex 5.68725 16.9935 6.35
    endloop
  endfacet
  facet normal -0.838666 -0.544646 0
    outer loop
      vertex 5.55657 17.25 1
      vertex 5.3998 17.4914 6.35
      vertex 5.3998 17.4914 1
    endloop
  endfacet
  facet normal -0.838666 -0.544646 0
    outer loop
      vertex 5.3998 17.4914 6.35
      vertex 5.55657 17.25 1
      vertex 5.55657 17.25 6.35
    endloop
  endfacet
  facet normal -0.453775 -0.891116 0
    outer loop
      vertex 4.29353 18.3872 1
      vertex 4.55 18.2566 6.35
      vertex 4.29353 18.3872 6.35
    endloop
  endfacet
  facet normal -0.453775 -0.891116 -0
    outer loop
      vertex 4.55 18.2566 6.35
      vertex 4.29353 18.3872 1
      vertex 4.55 18.2566 1
    endloop
  endfacet
  facet normal -0.629428 -0.777059 0
    outer loop
      vertex 4.79141 18.0998 1
      vertex 5.01511 17.9186 6.35
      vertex 4.79141 18.0998 6.35
    endloop
  endfacet
  facet normal -0.629428 -0.777059 -0
    outer loop
      vertex 5.01511 17.9186 6.35
      vertex 4.79141 18.0998 1
      vertex 5.01511 17.9186 1
    endloop
  endfacet
  facet normal 0.891025 -0.453954 0
    outer loop
      vertex 0.662749 16.9935 6.35
      vertex 0.793429 17.25 1
      vertex 0.793429 17.25 6.35
    endloop
  endfacet
  facet normal 0.891025 -0.453954 0
    outer loop
      vertex 0.793429 17.25 1
      vertex 0.662749 16.9935 6.35
      vertex 0.662749 16.9935 1
    endloop
  endfacet
  facet normal 0.156332 -0.987705 0
    outer loop
      vertex 2.60324 18.5649 1
      vertex 2.88755 18.6099 6.35
      vertex 2.60324 18.5649 6.35
    endloop
  endfacet
  facet normal 0.156332 -0.987705 0
    outer loop
      vertex 2.88755 18.6099 6.35
      vertex 2.60324 18.5649 1
      vertex 2.88755 18.6099 1
    endloop
  endfacet
  facet normal -0.358199 0.933645 0
    outer loop
      vertex 4.29353 13.3627 1
      vertex 4.0248 13.2596 6.35
      vertex 4.29353 13.3627 6.35
    endloop
  endfacet
  facet normal -0.358199 0.933645 0
    outer loop
      vertex 4.0248 13.2596 6.35
      vertex 4.29353 13.3627 1
      vertex 4.0248 13.2596 1
    endloop
  endfacet
  facet normal -0.965917 -0.258852 0
    outer loop
      vertex 5.86491 16.4468 1
      vertex 5.79041 16.7248 6.35
      vertex 5.79041 16.7248 1
    endloop
  endfacet
  facet normal -0.965917 -0.258852 0
    outer loop
      vertex 5.79041 16.7248 6.35
      vertex 5.86491 16.4468 1
      vertex 5.86491 16.4468 6.35
    endloop
  endfacet
  facet normal -0.987693 -0.156405 0
    outer loop
      vertex 5.90993 16.1625 1
      vertex 5.86491 16.4468 6.35
      vertex 5.86491 16.4468 1
    endloop
  endfacet
  facet normal -0.987693 -0.156405 0
    outer loop
      vertex 5.86491 16.4468 6.35
      vertex 5.90993 16.1625 1
      vertex 5.90993 16.1625 6.35
    endloop
  endfacet
  facet normal -0.933562 -0.358416 0
    outer loop
      vertex 5.79041 16.7248 1
      vertex 5.68725 16.9935 6.35
      vertex 5.68725 16.9935 1
    endloop
  endfacet
  facet normal -0.933562 -0.358416 0
    outer loop
      vertex 5.68725 16.9935 6.35
      vertex 5.79041 16.7248 1
      vertex 5.79041 16.7248 6.35
    endloop
  endfacet
  facet normal -0.777144 -0.629323 0
    outer loop
      vertex 5.3998 17.4914 1
      vertex 5.21865 17.7151 6.35
      vertex 5.21865 17.7151 1
    endloop
  endfacet
  facet normal -0.777144 -0.629323 0
    outer loop
      vertex 5.21865 17.7151 6.35
      vertex 5.3998 17.4914 1
      vertex 5.3998 17.4914 6.35
    endloop
  endfacet
  facet normal -0.258817 -0.965926 0
    outer loop
      vertex 3.74676 18.5649 1
      vertex 4.0248 18.4904 6.35
      vertex 3.74676 18.5649 6.35
    endloop
  endfacet
  facet normal -0.258817 -0.965926 -0
    outer loop
      vertex 4.0248 18.4904 6.35
      vertex 3.74676 18.5649 1
      vertex 4.0248 18.4904 1
    endloop
  endfacet
  facet normal -0.358502 -0.933529 0
    outer loop
      vertex 4.0248 18.4904 1
      vertex 4.29353 18.3872 6.35
      vertex 4.0248 18.4904 6.35
    endloop
  endfacet
  facet normal -0.358502 -0.933529 -0
    outer loop
      vertex 4.29353 18.3872 6.35
      vertex 4.0248 18.4904 1
      vertex 4.29353 18.3872 1
    endloop
  endfacet
  facet normal -0.156332 -0.987705 0
    outer loop
      vertex 3.46245 18.6099 1
      vertex 3.74676 18.5649 6.35
      vertex 3.46245 18.6099 6.35
    endloop
  endfacet
  facet normal -0.156332 -0.987705 -0
    outer loop
      vertex 3.74676 18.5649 6.35
      vertex 3.46245 18.6099 1
      vertex 3.74676 18.5649 1
    endloop
  endfacet
  facet normal -0.544704 -0.838628 0
    outer loop
      vertex 4.55 18.2566 1
      vertex 4.79141 18.0998 6.35
      vertex 4.55 18.2566 6.35
    endloop
  endfacet
  facet normal -0.544704 -0.838628 -0
    outer loop
      vertex 4.79141 18.0998 6.35
      vertex 4.55 18.2566 1
      vertex 4.79141 18.0998 1
    endloop
  endfacet
  facet normal 0.965917 -0.258852 0
    outer loop
      vertex 0.485094 16.4468 6.35
      vertex 0.559594 16.7248 1
      vertex 0.559594 16.7248 6.35
    endloop
  endfacet
  facet normal 0.965917 -0.258852 0
    outer loop
      vertex 0.559594 16.7248 1
      vertex 0.485094 16.4468 6.35
      vertex 0.485094 16.4468 1
    endloop
  endfacet
  facet normal 0.777149 -0.629317 0
    outer loop
      vertex 0.950203 17.4914 6.35
      vertex 1.13135 17.7151 1
      vertex 1.13135 17.7151 6.35
    endloop
  endfacet
  facet normal 0.777149 -0.629317 0
    outer loop
      vertex 1.13135 17.7151 1
      vertex 0.950203 17.4914 6.35
      vertex 0.950203 17.4914 1
    endloop
  endfacet
  facet normal 0.707037 -0.707176 0
    outer loop
      vertex 1.13135 17.7151 6.35
      vertex 1.33489 17.9186 1
      vertex 1.33489 17.9186 6.35
    endloop
  endfacet
  facet normal 0.707037 -0.707176 0
    outer loop
      vertex 1.33489 17.9186 1
      vertex 1.13135 17.7151 6.35
      vertex 1.13135 17.7151 1
    endloop
  endfacet
  facet normal 0.838659 -0.544656 0
    outer loop
      vertex 0.793429 17.25 6.35
      vertex 0.950203 17.4914 1
      vertex 0.950203 17.4914 6.35
    endloop
  endfacet
  facet normal 0.838659 -0.544656 0
    outer loop
      vertex 0.950203 17.4914 1
      vertex 0.793429 17.25 6.35
      vertex 0.793429 17.25 1
    endloop
  endfacet
  facet normal 0.933568 -0.3584 0
    outer loop
      vertex 0.559594 16.7248 6.35
      vertex 0.662749 16.9935 1
      vertex 0.662749 16.9935 6.35
    endloop
  endfacet
  facet normal 0.933568 -0.3584 0
    outer loop
      vertex 0.662749 16.9935 1
      vertex 0.559594 16.7248 6.35
      vertex 0.559594 16.7248 1
    endloop
  endfacet
  facet normal 0.987688 -0.156439 0
    outer loop
      vertex 0.440064 16.1625 6.35
      vertex 0.485094 16.4468 1
      vertex 0.485094 16.4468 6.35
    endloop
  endfacet
  facet normal 0.987688 -0.156439 0
    outer loop
      vertex 0.485094 16.4468 1
      vertex 0.440064 16.1625 6.35
      vertex 0.440064 16.1625 1
    endloop
  endfacet
  facet normal 0.453775 -0.891116 0
    outer loop
      vertex 1.8 18.2566 1
      vertex 2.05647 18.3872 6.35
      vertex 1.8 18.2566 6.35
    endloop
  endfacet
  facet normal 0.453775 -0.891116 0
    outer loop
      vertex 2.05647 18.3872 6.35
      vertex 1.8 18.2566 1
      vertex 2.05647 18.3872 1
    endloop
  endfacet
  facet normal 0.544704 -0.838628 0
    outer loop
      vertex 1.55859 18.0998 1
      vertex 1.8 18.2566 6.35
      vertex 1.55859 18.0998 6.35
    endloop
  endfacet
  facet normal 0.544704 -0.838628 0
    outer loop
      vertex 1.8 18.2566 6.35
      vertex 1.55859 18.0998 1
      vertex 1.8 18.2566 1
    endloop
  endfacet
  facet normal 0.258817 -0.965926 0
    outer loop
      vertex 2.3252 18.4904 1
      vertex 2.60324 18.5649 6.35
      vertex 2.3252 18.4904 6.35
    endloop
  endfacet
  facet normal 0.258817 -0.965926 0
    outer loop
      vertex 2.60324 18.5649 6.35
      vertex 2.3252 18.4904 1
      vertex 2.60324 18.5649 1
    endloop
  endfacet
  facet normal 0.0524585 -0.998623 0
    outer loop
      vertex 2.88755 18.6099 1
      vertex 3.175 18.625 6.35
      vertex 2.88755 18.6099 6.35
    endloop
  endfacet
  facet normal 0.0524585 -0.998623 0
    outer loop
      vertex 3.175 18.625 6.35
      vertex 2.88755 18.6099 1
      vertex 3.175 18.625 1
    endloop
  endfacet
  facet normal -0.998629 0.0523455 0
    outer loop
      vertex 5.90993 15.5875 1
      vertex 5.925 15.875 6.35
      vertex 5.925 15.875 1
    endloop
  endfacet
  facet normal -0.998629 0.0523455 0
    outer loop
      vertex 5.925 15.875 6.35
      vertex 5.90993 15.5875 1
      vertex 5.90993 15.5875 6.35
    endloop
  endfacet
  facet normal -0.777144 0.629323 0
    outer loop
      vertex 5.21865 14.0349 1
      vertex 5.3998 14.2586 6.35
      vertex 5.3998 14.2586 1
    endloop
  endfacet
  facet normal -0.777144 0.629323 0
    outer loop
      vertex 5.3998 14.2586 6.35
      vertex 5.21865 14.0349 1
      vertex 5.21865 14.0349 6.35
    endloop
  endfacet
  facet normal -0.933562 0.358416 0
    outer loop
      vertex 5.68725 14.7565 1
      vertex 5.79041 15.0252 6.35
      vertex 5.79041 15.0252 1
    endloop
  endfacet
  facet normal -0.933562 0.358416 0
    outer loop
      vertex 5.79041 15.0252 6.35
      vertex 5.68725 14.7565 1
      vertex 5.68725 14.7565 6.35
    endloop
  endfacet
  facet normal 0.838659 0.544656 0
    outer loop
      vertex 0.950203 14.2586 6.35
      vertex 0.793429 14.5 1
      vertex 0.793429 14.5 6.35
    endloop
  endfacet
  facet normal 0.838659 0.544656 0
    outer loop
      vertex 0.793429 14.5 1
      vertex 0.950203 14.2586 6.35
      vertex 0.950203 14.2586 1
    endloop
  endfacet
  facet normal 0 0 1
    outer loop
      vertex 5.90993 16.1625 1
      vertex 5.90993 15.5875 1
      vertex 5.925 15.875 1
    endloop
  endfacet
  facet normal 0 0 1
    outer loop
      vertex 5.86491 16.4468 1
      vertex 5.90993 15.5875 1
      vertex 5.90993 16.1625 1
    endloop
  endfacet
  facet normal 0 0 1
    outer loop
      vertex 5.86491 16.4468 1
      vertex 5.86491 15.3032 1
      vertex 5.90993 15.5875 1
    endloop
  endfacet
  facet normal 0 0 1
    outer loop
      vertex 5.79041 16.7248 1
      vertex 5.86491 15.3032 1
      vertex 5.86491 16.4468 1
    endloop
  endfacet
  facet normal 0 0 1
    outer loop
      vertex 5.79041 16.7248 1
      vertex 5.79041 15.0252 1
      vertex 5.86491 15.3032 1
    endloop
  endfacet
  facet normal 0 0 1
    outer loop
      vertex 5.68725 16.9935 1
      vertex 5.79041 15.0252 1
      vertex 5.79041 16.7248 1
    endloop
  endfacet
  facet normal 0 0 1
    outer loop
      vertex 5.68725 16.9935 1
      vertex 5.68725 14.7565 1
      vertex 5.79041 15.0252 1
    endloop
  endfacet
  facet normal 0 0 1
    outer loop
      vertex 5.55657 17.25 1
      vertex 5.68725 14.7565 1
      vertex 5.68725 16.9935 1
    endloop
  endfacet
  facet normal 0 0 1
    outer loop
      vertex 5.55657 17.25 1
      vertex 5.55657 14.5 1
      vertex 5.68725 14.7565 1
    endloop
  endfacet
  facet normal 0 0 1
    outer loop
      vertex 5.3998 17.4914 1
      vertex 5.55657 14.5 1
      vertex 5.55657 17.25 1
    endloop
  endfacet
  facet normal 0 0 1
    outer loop
      vertex 5.3998 17.4914 1
      vertex 5.3998 14.2586 1
      vertex 5.55657 14.5 1
    endloop
  endfacet
  facet normal 0 0 1
    outer loop
      vertex 5.21865 17.7151 1
      vertex 5.3998 14.2586 1
      vertex 5.3998 17.4914 1
    endloop
  endfacet
  facet normal 0 0 1
    outer loop
      vertex 5.21865 17.7151 1
      vertex 5.21865 14.0349 1
      vertex 5.3998 14.2586 1
    endloop
  endfacet
  facet normal 0 0 1
    outer loop
      vertex 5.01511 17.9186 1
      vertex 5.21865 14.0349 1
      vertex 5.21865 17.7151 1
    endloop
  endfacet
  facet normal 0 0 1
    outer loop
      vertex 5.01511 17.9186 1
      vertex 5.01511 13.8314 1
      vertex 5.21865 14.0349 1
    endloop
  endfacet
  facet normal 0 0 1
    outer loop
      vertex 4.79141 18.0998 1
      vertex 5.01511 13.8314 1
      vertex 5.01511 17.9186 1
    endloop
  endfacet
  facet normal 0 0 1
    outer loop
      vertex 4.79141 18.0998 1
      vertex 4.79141 13.6502 1
      vertex 5.01511 13.8314 1
    endloop
  endfacet
  facet normal 0 0 1
    outer loop
      vertex 4.55 18.2566 1
      vertex 4.79141 13.6502 1
      vertex 4.79141 18.0998 1
    endloop
  endfacet
  facet normal 0 0 1
    outer loop
      vertex 4.55 18.2566 1
      vertex 4.55 13.4934 1
      vertex 4.79141 13.6502 1
    endloop
  endfacet
  facet normal 0 0 1
    outer loop
      vertex 4.29353 18.3872 1
      vertex 4.55 13.4934 1
      vertex 4.55 18.2566 1
    endloop
  endfacet
  facet normal 0 0 1
    outer loop
      vertex 4.29353 18.3872 1
      vertex 4.29353 13.3627 1
      vertex 4.55 13.4934 1
    endloop
  endfacet
  facet normal 0 0 1
    outer loop
      vertex 4.0248 18.4904 1
      vertex 4.29353 13.3627 1
      vertex 4.29353 18.3872 1
    endloop
  endfacet
  facet normal 0 0 1
    outer loop
      vertex 4.0248 18.4904 1
      vertex 4.0248 13.2596 1
      vertex 4.29353 13.3627 1
    endloop
  endfacet
  facet normal 0 0 1
    outer loop
      vertex 3.74676 18.5649 1
      vertex 4.0248 13.2596 1
      vertex 4.0248 18.4904 1
    endloop
  endfacet
  facet normal 0 0 1
    outer loop
      vertex 3.74676 18.5649 1
      vertex 3.74676 13.1851 1
      vertex 4.0248 13.2596 1
    endloop
  endfacet
  facet normal 0 0 1
    outer loop
      vertex 3.46245 18.6099 1
      vertex 3.74676 13.1851 1
      vertex 3.74676 18.5649 1
    endloop
  endfacet
  facet normal 0 0 1
    outer loop
      vertex 3.46245 18.6099 1
      vertex 3.46245 13.1401 1
      vertex 3.74676 13.1851 1
    endloop
  endfacet
  facet normal 0 0 1
    outer loop
      vertex 3.175 18.625 1
      vertex 3.46245 13.1401 1
      vertex 3.46245 18.6099 1
    endloop
  endfacet
  facet normal 0 0 1
    outer loop
      vertex 3.175 18.625 1
      vertex 3.175 13.125 1
      vertex 3.46245 13.1401 1
    endloop
  endfacet
  facet normal -0 0 1
    outer loop
      vertex 2.88755 18.6099 1
      vertex 3.175 13.125 1
      vertex 3.175 18.625 1
    endloop
  endfacet
  facet normal 0 0 1
    outer loop
      vertex 2.88755 18.6099 1
      vertex 2.88755 13.1401 1
      vertex 3.175 13.125 1
    endloop
  endfacet
  facet normal -0 0 1
    outer loop
      vertex 2.60324 18.5649 1
      vertex 2.88755 13.1401 1
      vertex 2.88755 18.6099 1
    endloop
  endfacet
  facet normal 0 0 1
    outer loop
      vertex 2.60324 18.5649 1
      vertex 2.60324 13.1851 1
      vertex 2.88755 13.1401 1
    endloop
  endfacet
  facet normal -0 0 1
    outer loop
      vertex 2.3252 18.4904 1
      vertex 2.60324 13.1851 1
      vertex 2.60324 18.5649 1
    endloop
  endfacet
  facet normal 0 0 1
    outer loop
      vertex 2.3252 18.4904 1
      vertex 2.3252 13.2596 1
      vertex 2.60324 13.1851 1
    endloop
  endfacet
  facet normal -0 0 1
    outer loop
      vertex 2.05647 18.3872 1
      vertex 2.3252 13.2596 1
      vertex 2.3252 18.4904 1
    endloop
  endfacet
  facet normal 0 0 1
    outer loop
      vertex 2.05647 18.3872 1
      vertex 2.05647 13.3627 1
      vertex 2.3252 13.2596 1
    endloop
  endfacet
  facet normal -0 0 1
    outer loop
      vertex 1.8 18.2566 1
      vertex 2.05647 13.3627 1
      vertex 2.05647 18.3872 1
    endloop
  endfacet
  facet normal 0 0 1
    outer loop
      vertex 1.8 18.2566 1
      vertex 1.8 13.4934 1
      vertex 2.05647 13.3627 1
    endloop
  endfacet
  facet normal -0 0 1
    outer loop
      vertex 1.55859 18.0998 1
      vertex 1.8 13.4934 1
      vertex 1.8 18.2566 1
    endloop
  endfacet
  facet normal 0 0 1
    outer loop
      vertex 1.55859 18.0998 1
      vertex 1.55859 13.6502 1
      vertex 1.8 13.4934 1
    endloop
  endfacet
  facet normal -0 0 1
    outer loop
      vertex 1.33489 17.9186 1
      vertex 1.55859 13.6502 1
      vertex 1.55859 18.0998 1
    endloop
  endfacet
  facet normal 0 0 1
    outer loop
      vertex 1.33489 17.9186 1
      vertex 1.33489 13.8314 1
      vertex 1.55859 13.6502 1
    endloop
  endfacet
  facet normal -0 0 1
    outer loop
      vertex 1.13135 17.7151 1
      vertex 1.33489 13.8314 1
      vertex 1.33489 17.9186 1
    endloop
  endfacet
  facet normal 0 0 1
    outer loop
      vertex 1.13135 17.7151 1
      vertex 1.13135 14.0349 1
      vertex 1.33489 13.8314 1
    endloop
  endfacet
  facet normal -0 0 1
    outer loop
      vertex 0.950203 17.4914 1
      vertex 1.13135 14.0349 1
      vertex 1.13135 17.7151 1
    endloop
  endfacet
  facet normal 0 0 1
    outer loop
      vertex 0.950203 17.4914 1
      vertex 0.950203 14.2586 1
      vertex 1.13135 14.0349 1
    endloop
  endfacet
  facet normal -0 0 1
    outer loop
      vertex 0.793429 17.25 1
      vertex 0.950203 14.2586 1
      vertex 0.950203 17.4914 1
    endloop
  endfacet
  facet normal 0 0 1
    outer loop
      vertex 0.793429 17.25 1
      vertex 0.793429 14.5 1
      vertex 0.950203 14.2586 1
    endloop
  endfacet
  facet normal -0 0 1
    outer loop
      vertex 0.662749 16.9935 1
      vertex 0.793429 14.5 1
      vertex 0.793429 17.25 1
    endloop
  endfacet
  facet normal 0 0 1
    outer loop
      vertex 0.662749 16.9935 1
      vertex 0.662749 14.7565 1
      vertex 0.793429 14.5 1
    endloop
  endfacet
  facet normal -0 0 1
    outer loop
      vertex 0.559594 16.7248 1
      vertex 0.662749 14.7565 1
      vertex 0.662749 16.9935 1
    endloop
  endfacet
  facet normal 0 0 1
    outer loop
      vertex 0.559594 16.7248 1
      vertex 0.559594 15.0252 1
      vertex 0.662749 14.7565 1
    endloop
  endfacet
  facet normal -0 0 1
    outer loop
      vertex 0.485094 16.4468 1
      vertex 0.559594 15.0252 1
      vertex 0.559594 16.7248 1
    endloop
  endfacet
  facet normal 0 0 1
    outer loop
      vertex 0.485094 16.4468 1
      vertex 0.485094 15.3032 1
      vertex 0.559594 15.0252 1
    endloop
  endfacet
  facet normal -0 0 1
    outer loop
      vertex 0.440064 16.1625 1
      vertex 0.485094 15.3032 1
      vertex 0.485094 16.4468 1
    endloop
  endfacet
  facet normal 0 0 1
    outer loop
      vertex 0.440064 16.1625 1
      vertex 0.440064 15.5875 1
      vertex 0.485094 15.3032 1
    endloop
  endfacet
  facet normal 0 -0 1
    outer loop
      vertex 0.440064 15.5875 1
      vertex 0.440064 16.1625 1
      vertex 0.424999 15.875 1
    endloop
  endfacet
  facet normal -0.987693 0.156405 0
    outer loop
      vertex 5.86491 15.3032 1
      vertex 5.90993 15.5875 6.35
      vertex 5.90993 15.5875 1
    endloop
  endfacet
  facet normal -0.987693 0.156405 0
    outer loop
      vertex 5.90993 15.5875 6.35
      vertex 5.86491 15.3032 1
      vertex 5.86491 15.3032 6.35
    endloop
  endfacet
  facet normal -0.965917 0.258852 0
    outer loop
      vertex 5.79041 15.0252 1
      vertex 5.86491 15.3032 6.35
      vertex 5.86491 15.3032 1
    endloop
  endfacet
  facet normal -0.965917 0.258852 0
    outer loop
      vertex 5.86491 15.3032 6.35
      vertex 5.79041 15.0252 1
      vertex 5.79041 15.0252 6.35
    endloop
  endfacet
  facet normal -0.707037 0.707176 0
    outer loop
      vertex 5.01511 13.8314 1
      vertex 5.21865 14.0349 6.35
      vertex 5.21865 14.0349 1
    endloop
  endfacet
  facet normal -0.707037 0.707176 0
    outer loop
      vertex 5.21865 14.0349 6.35
      vertex 5.01511 13.8314 1
      vertex 5.01511 13.8314 6.35
    endloop
  endfacet
  facet normal -0.838666 0.544646 0
    outer loop
      vertex 5.3998 14.2586 1
      vertex 5.55657 14.5 6.35
      vertex 5.55657 14.5 1
    endloop
  endfacet
  facet normal -0.838666 0.544646 0
    outer loop
      vertex 5.55657 14.5 6.35
      vertex 5.3998 14.2586 1
      vertex 5.3998 14.2586 6.35
    endloop
  endfacet
  facet normal 0.965917 0.258852 0
    outer loop
      vertex 0.559594 15.0252 6.35
      vertex 0.485094 15.3032 1
      vertex 0.485094 15.3032 6.35
    endloop
  endfacet
  facet normal 0.965917 0.258852 0
    outer loop
      vertex 0.485094 15.3032 1
      vertex 0.559594 15.0252 6.35
      vertex 0.559594 15.0252 1
    endloop
  endfacet
  facet normal -0.454051 0.890976 0
    outer loop
      vertex 4.55 13.4934 1
      vertex 4.29353 13.3627 6.35
      vertex 4.55 13.4934 6.35
    endloop
  endfacet
  facet normal -0.454051 0.890976 0
    outer loop
      vertex 4.29353 13.3627 6.35
      vertex 4.55 13.4934 1
      vertex 4.29353 13.3627 1
    endloop
  endfacet
  facet normal -0.544704 0.838628 0
    outer loop
      vertex 4.79141 13.6502 1
      vertex 4.55 13.4934 6.35
      vertex 4.79141 13.6502 6.35
    endloop
  endfacet
  facet normal -0.544704 0.838628 0
    outer loop
      vertex 4.55 13.4934 6.35
      vertex 4.79141 13.6502 1
      vertex 4.55 13.4934 1
    endloop
  endfacet
  facet normal -0.629428 0.777059 0
    outer loop
      vertex 5.01511 13.8314 1
      vertex 4.79141 13.6502 6.35
      vertex 5.01511 13.8314 6.35
    endloop
  endfacet
  facet normal -0.629428 0.777059 0
    outer loop
      vertex 4.79141 13.6502 6.35
      vertex 5.01511 13.8314 1
      vertex 4.79141 13.6502 1
    endloop
  endfacet
  facet normal 0.0524585 0.998623 -0
    outer loop
      vertex 3.175 13.125 1
      vertex 2.88755 13.1401 6.35
      vertex 3.175 13.125 6.35
    endloop
  endfacet
  facet normal 0.0524585 0.998623 0
    outer loop
      vertex 2.88755 13.1401 6.35
      vertex 3.175 13.125 1
      vertex 2.88755 13.1401 1
    endloop
  endfacet
  facet normal 0.891025 0.453954 0
    outer loop
      vertex 0.793429 14.5 6.35
      vertex 0.662749 14.7565 1
      vertex 0.662749 14.7565 6.35
    endloop
  endfacet
  facet normal 0.891025 0.453954 0
    outer loop
      vertex 0.662749 14.7565 1
      vertex 0.793429 14.5 6.35
      vertex 0.793429 14.5 1
    endloop
  endfacet
  facet normal 0.707037 0.707176 0
    outer loop
      vertex 1.33489 13.8314 6.35
      vertex 1.13135 14.0349 1
      vertex 1.13135 14.0349 6.35
    endloop
  endfacet
  facet normal 0.707037 0.707176 0
    outer loop
      vertex 1.13135 14.0349 1
      vertex 1.33489 13.8314 6.35
      vertex 1.33489 13.8314 1
    endloop
  endfacet
  facet normal 0.777149 0.629317 0
    outer loop
      vertex 1.13135 14.0349 6.35
      vertex 0.950203 14.2586 1
      vertex 0.950203 14.2586 6.35
    endloop
  endfacet
  facet normal 0.777149 0.629317 0
    outer loop
      vertex 0.950203 14.2586 1
      vertex 1.13135 14.0349 6.35
      vertex 1.13135 14.0349 1
    endloop
  endfacet
  facet normal 0.933568 0.3584 0
    outer loop
      vertex 0.662749 14.7565 6.35
      vertex 0.559594 15.0252 1
      vertex 0.559594 15.0252 6.35
    endloop
  endfacet
  facet normal 0.933568 0.3584 0
    outer loop
      vertex 0.559594 15.0252 1
      vertex 0.662749 14.7565 6.35
      vertex 0.662749 14.7565 1
    endloop
  endfacet
  facet normal 0.987688 0.156439 0
    outer loop
      vertex 0.485094 15.3032 6.35
      vertex 0.440064 15.5875 1
      vertex 0.440064 15.5875 6.35
    endloop
  endfacet
  facet normal 0.987688 0.156439 0
    outer loop
      vertex 0.440064 15.5875 1
      vertex 0.485094 15.3032 6.35
      vertex 0.485094 15.3032 1
    endloop
  endfacet
  facet normal 0.99863 0.0523282 0
    outer loop
      vertex 0.440064 15.5875 6.35
      vertex 0.424999 15.875 1
      vertex 0.424999 15.875 6.35
    endloop
  endfacet
  facet normal 0.99863 0.0523282 0
    outer loop
      vertex 0.424999 15.875 1
      vertex 0.440064 15.5875 6.35
      vertex 0.440064 15.5875 1
    endloop
  endfacet
  facet normal -0.258817 0.965926 0
    outer loop
      vertex 4.0248 13.2596 1
      vertex 3.74676 13.1851 6.35
      vertex 4.0248 13.2596 6.35
    endloop
  endfacet
  facet normal -0.258817 0.965926 0
    outer loop
      vertex 3.74676 13.1851 6.35
      vertex 4.0248 13.2596 1
      vertex 3.74676 13.1851 1
    endloop
  endfacet
  facet normal -0.156332 0.987705 0
    outer loop
      vertex 3.74676 13.1851 1
      vertex 3.46245 13.1401 6.35
      vertex 3.74676 13.1851 6.35
    endloop
  endfacet
  facet normal -0.156332 0.987705 0
    outer loop
      vertex 3.46245 13.1401 6.35
      vertex 3.74676 13.1851 1
      vertex 3.46245 13.1401 1
    endloop
  endfacet
  facet normal 0.629428 0.777059 -0
    outer loop
      vertex 1.55859 13.6502 1
      vertex 1.33489 13.8314 6.35
      vertex 1.55859 13.6502 6.35
    endloop
  endfacet
  facet normal 0.629428 0.777059 0
    outer loop
      vertex 1.33489 13.8314 6.35
      vertex 1.55859 13.6502 1
      vertex 1.33489 13.8314 1
    endloop
  endfacet
  facet normal 0.544704 0.838628 -0
    outer loop
      vertex 1.8 13.4934 1
      vertex 1.55859 13.6502 6.35
      vertex 1.8 13.4934 6.35
    endloop
  endfacet
  facet normal 0.544704 0.838628 0
    outer loop
      vertex 1.55859 13.6502 6.35
      vertex 1.8 13.4934 1
      vertex 1.55859 13.6502 1
    endloop
  endfacet
  facet normal 0.358199 0.933645 -0
    outer loop
      vertex 2.3252 13.2596 1
      vertex 2.05647 13.3627 6.35
      vertex 2.3252 13.2596 6.35
    endloop
  endfacet
  facet normal 0.358199 0.933645 0
    outer loop
      vertex 2.05647 13.3627 6.35
      vertex 2.3252 13.2596 1
      vertex 2.05647 13.3627 1
    endloop
  endfacet
  facet normal 0.454051 0.890976 -0
    outer loop
      vertex 2.05647 13.3627 1
      vertex 1.8 13.4934 6.35
      vertex 2.05647 13.3627 6.35
    endloop
  endfacet
  facet normal 0.454051 0.890976 0
    outer loop
      vertex 1.8 13.4934 6.35
      vertex 2.05647 13.3627 1
      vertex 1.8 13.4934 1
    endloop
  endfacet
  facet normal 0.258817 0.965926 -0
    outer loop
      vertex 2.60324 13.1851 1
      vertex 2.3252 13.2596 6.35
      vertex 2.60324 13.1851 6.35
    endloop
  endfacet
  facet normal 0.258817 0.965926 0
    outer loop
      vertex 2.3252 13.2596 6.35
      vertex 2.60324 13.1851 1
      vertex 2.3252 13.2596 1
    endloop
  endfacet
  facet normal 0.156332 0.987705 -0
    outer loop
      vertex 2.88755 13.1401 1
      vertex 2.60324 13.1851 6.35
      vertex 2.88755 13.1401 6.35
    endloop
  endfacet
  facet normal 0.156332 0.987705 0
    outer loop
      vertex 2.60324 13.1851 6.35
      vertex 2.88755 13.1401 1
      vertex 2.60324 13.1851 1
    endloop
  endfacet
  facet normal -0.998629 -0.0523455 0
    outer loop
      vertex 5.925 47.625 1
      vertex 5.90993 47.9125 6.35
      vertex 5.90993 47.9125 1
    endloop
  endfacet
  facet normal -0.998629 -0.0523455 0
    outer loop
      vertex 5.90993 47.9125 6.35
      vertex 5.925 47.625 1
      vertex 5.925 47.625 6.35
    endloop
  endfacet
  facet normal 0.99863 -0.0523282 0
    outer loop
      vertex 0.424999 47.625 6.35
      vertex 0.440064 47.9125 1
      vertex 0.440064 47.9125 6.35
    endloop
  endfacet
  facet normal 0.99863 -0.0523282 0
    outer loop
      vertex 0.440064 47.9125 1
      vertex 0.424999 47.625 6.35
      vertex 0.424999 47.625 1
    endloop
  endfacet
  facet normal -0.0524585 -0.998623 0
    outer loop
      vertex 3.175 50.375 1
      vertex 3.46245 50.3599 6.35
      vertex 3.175 50.375 6.35
    endloop
  endfacet
  facet normal -0.0524585 -0.998623 -0
    outer loop
      vertex 3.46245 50.3599 6.35
      vertex 3.175 50.375 1
      vertex 3.46245 50.3599 1
    endloop
  endfacet
  facet normal -0.0524585 0.998623 0
    outer loop
      vertex 3.46245 44.8901 1
      vertex 3.175 44.875 6.35
      vertex 3.46245 44.8901 6.35
    endloop
  endfacet
  facet normal -0.0524585 0.998623 0
    outer loop
      vertex 3.175 44.875 6.35
      vertex 3.46245 44.8901 1
      vertex 3.175 44.875 1
    endloop
  endfacet
  facet normal -0.707037 -0.707176 0
    outer loop
      vertex 5.01511 49.6686 1
      vertex 5.21865 49.4651 6.35
      vertex 5.01511 49.6686 6.35
    endloop
  endfacet
  facet normal -0.707037 -0.707176 -0
    outer loop
      vertex 5.21865 49.4651 6.35
      vertex 5.01511 49.6686 1
      vertex 5.21865 49.4651 1
    endloop
  endfacet
  facet normal 0.629428 -0.777059 0
    outer loop
      vertex 1.33489 49.6686 1
      vertex 1.55859 49.8498 6.35
      vertex 1.33489 49.6686 6.35
    endloop
  endfacet
  facet normal 0.629428 -0.777059 0
    outer loop
      vertex 1.55859 49.8498 6.35
      vertex 1.33489 49.6686 1
      vertex 1.55859 49.8498 1
    endloop
  endfacet
  facet normal 0.358502 -0.933529 0
    outer loop
      vertex 2.05647 50.1372 1
      vertex 2.3252 50.2404 6.35
      vertex 2.05647 50.1372 6.35
    endloop
  endfacet
  facet normal 0.358502 -0.933529 0
    outer loop
      vertex 2.3252 50.2404 6.35
      vertex 2.05647 50.1372 1
      vertex 2.3252 50.2404 1
    endloop
  endfacet
  facet normal -0.891025 0.453954 0
    outer loop
      vertex 5.55657 46.25 1
      vertex 5.68725 46.5065 6.35
      vertex 5.68725 46.5065 1
    endloop
  endfacet
  facet normal -0.891025 0.453954 0
    outer loop
      vertex 5.68725 46.5065 6.35
      vertex 5.55657 46.25 1
      vertex 5.55657 46.25 6.35
    endloop
  endfacet
  facet normal -0.891025 -0.453954 0
    outer loop
      vertex 5.68725 48.7435 1
      vertex 5.55657 49 6.35
      vertex 5.55657 49 1
    endloop
  endfacet
  facet normal -0.891025 -0.453954 0
    outer loop
      vertex 5.55657 49 6.35
      vertex 5.68725 48.7435 1
      vertex 5.68725 48.7435 6.35
    endloop
  endfacet
  facet normal -0.838666 -0.544646 0
    outer loop
      vertex 5.55657 49 1
      vertex 5.3998 49.2414 6.35
      vertex 5.3998 49.2414 1
    endloop
  endfacet
  facet normal -0.838666 -0.544646 0
    outer loop
      vertex 5.3998 49.2414 6.35
      vertex 5.55657 49 1
      vertex 5.55657 49 6.35
    endloop
  endfacet
  facet normal -0.453775 -0.891116 0
    outer loop
      vertex 4.29353 50.1372 1
      vertex 4.55 50.0066 6.35
      vertex 4.29353 50.1372 6.35
    endloop
  endfacet
  facet normal -0.453775 -0.891116 -0
    outer loop
      vertex 4.55 50.0066 6.35
      vertex 4.29353 50.1372 1
      vertex 4.55 50.0066 1
    endloop
  endfacet
  facet normal -0.629428 -0.777059 0
    outer loop
      vertex 4.79141 49.8498 1
      vertex 5.01511 49.6686 6.35
      vertex 4.79141 49.8498 6.35
    endloop
  endfacet
  facet normal -0.629428 -0.777059 -0
    outer loop
      vertex 5.01511 49.6686 6.35
      vertex 4.79141 49.8498 1
      vertex 5.01511 49.6686 1
    endloop
  endfacet
  facet normal 0.891025 -0.453954 0
    outer loop
      vertex 0.662749 48.7435 6.35
      vertex 0.793429 49 1
      vertex 0.793429 49 6.35
    endloop
  endfacet
  facet normal 0.891025 -0.453954 0
    outer loop
      vertex 0.793429 49 1
      vertex 0.662749 48.7435 6.35
      vertex 0.662749 48.7435 1
    endloop
  endfacet
  facet normal 0.156332 -0.987705 0
    outer loop
      vertex 2.60324 50.3149 1
      vertex 2.88755 50.3599 6.35
      vertex 2.60324 50.3149 6.35
    endloop
  endfacet
  facet normal 0.156332 -0.987705 0
    outer loop
      vertex 2.88755 50.3599 6.35
      vertex 2.60324 50.3149 1
      vertex 2.88755 50.3599 1
    endloop
  endfacet
  facet normal -0.358199 0.933645 0
    outer loop
      vertex 4.29353 45.1127 1
      vertex 4.0248 45.0096 6.35
      vertex 4.29353 45.1127 6.35
    endloop
  endfacet
  facet normal -0.358199 0.933645 0
    outer loop
      vertex 4.0248 45.0096 6.35
      vertex 4.29353 45.1127 1
      vertex 4.0248 45.0096 1
    endloop
  endfacet
  facet normal -0.965917 -0.258852 0
    outer loop
      vertex 5.86491 48.1968 1
      vertex 5.79041 48.4748 6.35
      vertex 5.79041 48.4748 1
    endloop
  endfacet
  facet normal -0.965917 -0.258852 0
    outer loop
      vertex 5.79041 48.4748 6.35
      vertex 5.86491 48.1968 1
      vertex 5.86491 48.1968 6.35
    endloop
  endfacet
  facet normal -0.987693 -0.156405 0
    outer loop
      vertex 5.90993 47.9125 1
      vertex 5.86491 48.1968 6.35
      vertex 5.86491 48.1968 1
    endloop
  endfacet
  facet normal -0.987693 -0.156405 0
    outer loop
      vertex 5.86491 48.1968 6.35
      vertex 5.90993 47.9125 1
      vertex 5.90993 47.9125 6.35
    endloop
  endfacet
  facet normal -0.933562 -0.358416 0
    outer loop
      vertex 5.79041 48.4748 1
      vertex 5.68725 48.7435 6.35
      vertex 5.68725 48.7435 1
    endloop
  endfacet
  facet normal -0.933562 -0.358416 0
    outer loop
      vertex 5.68725 48.7435 6.35
      vertex 5.79041 48.4748 1
      vertex 5.79041 48.4748 6.35
    endloop
  endfacet
  facet normal -0.777144 -0.629323 0
    outer loop
      vertex 5.3998 49.2414 1
      vertex 5.21865 49.4651 6.35
      vertex 5.21865 49.4651 1
    endloop
  endfacet
  facet normal -0.777144 -0.629323 0
    outer loop
      vertex 5.21865 49.4651 6.35
      vertex 5.3998 49.2414 1
      vertex 5.3998 49.2414 6.35
    endloop
  endfacet
  facet normal -0.258817 -0.965926 0
    outer loop
      vertex 3.74676 50.3149 1
      vertex 4.0248 50.2404 6.35
      vertex 3.74676 50.3149 6.35
    endloop
  endfacet
  facet normal -0.258817 -0.965926 -0
    outer loop
      vertex 4.0248 50.2404 6.35
      vertex 3.74676 50.3149 1
      vertex 4.0248 50.2404 1
    endloop
  endfacet
  facet normal -0.358502 -0.933529 0
    outer loop
      vertex 4.0248 50.2404 1
      vertex 4.29353 50.1372 6.35
      vertex 4.0248 50.2404 6.35
    endloop
  endfacet
  facet normal -0.358502 -0.933529 -0
    outer loop
      vertex 4.29353 50.1372 6.35
      vertex 4.0248 50.2404 1
      vertex 4.29353 50.1372 1
    endloop
  endfacet
  facet normal -0.156332 -0.987705 0
    outer loop
      vertex 3.46245 50.3599 1
      vertex 3.74676 50.3149 6.35
      vertex 3.46245 50.3599 6.35
    endloop
  endfacet
  facet normal -0.156332 -0.987705 -0
    outer loop
      vertex 3.74676 50.3149 6.35
      vertex 3.46245 50.3599 1
      vertex 3.74676 50.3149 1
    endloop
  endfacet
  facet normal -0.544704 -0.838628 0
    outer loop
      vertex 4.55 50.0066 1
      vertex 4.79141 49.8498 6.35
      vertex 4.55 50.0066 6.35
    endloop
  endfacet
  facet normal -0.544704 -0.838628 -0
    outer loop
      vertex 4.79141 49.8498 6.35
      vertex 4.55 50.0066 1
      vertex 4.79141 49.8498 1
    endloop
  endfacet
  facet normal 0.965917 -0.258852 0
    outer loop
      vertex 0.485094 48.1968 6.35
      vertex 0.559594 48.4748 1
      vertex 0.559594 48.4748 6.35
    endloop
  endfacet
  facet normal 0.965917 -0.258852 0
    outer loop
      vertex 0.559594 48.4748 1
      vertex 0.485094 48.1968 6.35
      vertex 0.485094 48.1968 1
    endloop
  endfacet
  facet normal 0.777149 -0.629317 0
    outer loop
      vertex 0.950203 49.2414 6.35
      vertex 1.13135 49.4651 1
      vertex 1.13135 49.4651 6.35
    endloop
  endfacet
  facet normal 0.777149 -0.629317 0
    outer loop
      vertex 1.13135 49.4651 1
      vertex 0.950203 49.2414 6.35
      vertex 0.950203 49.2414 1
    endloop
  endfacet
  facet normal 0.707037 -0.707176 0
    outer loop
      vertex 1.13135 49.4651 1
      vertex 1.33489 49.6686 6.35
      vertex 1.13135 49.4651 6.35
    endloop
  endfacet
  facet normal 0.707037 -0.707176 0
    outer loop
      vertex 1.33489 49.6686 6.35
      vertex 1.13135 49.4651 1
      vertex 1.33489 49.6686 1
    endloop
  endfacet
  facet normal 0.838659 -0.544656 0
    outer loop
      vertex 0.793429 49 6.35
      vertex 0.950203 49.2414 1
      vertex 0.950203 49.2414 6.35
    endloop
  endfacet
  facet normal 0.838659 -0.544656 0
    outer loop
      vertex 0.950203 49.2414 1
      vertex 0.793429 49 6.35
      vertex 0.793429 49 1
    endloop
  endfacet
  facet normal 0.933568 -0.3584 0
    outer loop
      vertex 0.559594 48.4748 6.35
      vertex 0.662749 48.7435 1
      vertex 0.662749 48.7435 6.35
    endloop
  endfacet
  facet normal 0.933568 -0.3584 0
    outer loop
      vertex 0.662749 48.7435 1
      vertex 0.559594 48.4748 6.35
      vertex 0.559594 48.4748 1
    endloop
  endfacet
  facet normal 0.987688 -0.156439 0
    outer loop
      vertex 0.440064 47.9125 6.35
      vertex 0.485094 48.1968 1
      vertex 0.485094 48.1968 6.35
    endloop
  endfacet
  facet normal 0.987688 -0.156439 0
    outer loop
      vertex 0.485094 48.1968 1
      vertex 0.440064 47.9125 6.35
      vertex 0.440064 47.9125 1
    endloop
  endfacet
  facet normal 0.453775 -0.891116 0
    outer loop
      vertex 1.8 50.0066 1
      vertex 2.05647 50.1372 6.35
      vertex 1.8 50.0066 6.35
    endloop
  endfacet
  facet normal 0.453775 -0.891116 0
    outer loop
      vertex 2.05647 50.1372 6.35
      vertex 1.8 50.0066 1
      vertex 2.05647 50.1372 1
    endloop
  endfacet
  facet normal 0.544704 -0.838628 0
    outer loop
      vertex 1.55859 49.8498 1
      vertex 1.8 50.0066 6.35
      vertex 1.55859 49.8498 6.35
    endloop
  endfacet
  facet normal 0.544704 -0.838628 0
    outer loop
      vertex 1.8 50.0066 6.35
      vertex 1.55859 49.8498 1
      vertex 1.8 50.0066 1
    endloop
  endfacet
  facet normal 0.258817 -0.965926 0
    outer loop
      vertex 2.3252 50.2404 1
      vertex 2.60324 50.3149 6.35
      vertex 2.3252 50.2404 6.35
    endloop
  endfacet
  facet normal 0.258817 -0.965926 0
    outer loop
      vertex 2.60324 50.3149 6.35
      vertex 2.3252 50.2404 1
      vertex 2.60324 50.3149 1
    endloop
  endfacet
  facet normal 0.0524585 -0.998623 0
    outer loop
      vertex 2.88755 50.3599 1
      vertex 3.175 50.375 6.35
      vertex 2.88755 50.3599 6.35
    endloop
  endfacet
  facet normal 0.0524585 -0.998623 0
    outer loop
      vertex 3.175 50.375 6.35
      vertex 2.88755 50.3599 1
      vertex 3.175 50.375 1
    endloop
  endfacet
  facet normal -0.777144 0.629323 0
    outer loop
      vertex 5.21865 45.7849 1
      vertex 5.3998 46.0086 6.35
      vertex 5.3998 46.0086 1
    endloop
  endfacet
  facet normal -0.777144 0.629323 0
    outer loop
      vertex 5.3998 46.0086 6.35
      vertex 5.21865 45.7849 1
      vertex 5.21865 45.7849 6.35
    endloop
  endfacet
  facet normal -0.933562 0.358416 0
    outer loop
      vertex 5.68725 46.5065 1
      vertex 5.79041 46.7752 6.35
      vertex 5.79041 46.7752 1
    endloop
  endfacet
  facet normal -0.933562 0.358416 0
    outer loop
      vertex 5.79041 46.7752 6.35
      vertex 5.68725 46.5065 1
      vertex 5.68725 46.5065 6.35
    endloop
  endfacet
  facet normal 0.838659 0.544656 0
    outer loop
      vertex 0.950203 46.0086 6.35
      vertex 0.793429 46.25 1
      vertex 0.793429 46.25 6.35
    endloop
  endfacet
  facet normal 0.838659 0.544656 0
    outer loop
      vertex 0.793429 46.25 1
      vertex 0.950203 46.0086 6.35
      vertex 0.950203 46.0086 1
    endloop
  endfacet
  facet normal 0 0 1
    outer loop
      vertex 5.90993 47.9125 1
      vertex 5.90993 47.3375 1
      vertex 5.925 47.625 1
    endloop
  endfacet
  facet normal 0 0 1
    outer loop
      vertex 5.86491 48.1968 1
      vertex 5.90993 47.3375 1
      vertex 5.90993 47.9125 1
    endloop
  endfacet
  facet normal 0 0 1
    outer loop
      vertex 5.86491 48.1968 1
      vertex 5.86491 47.0532 1
      vertex 5.90993 47.3375 1
    endloop
  endfacet
  facet normal 0 0 1
    outer loop
      vertex 5.79041 48.4748 1
      vertex 5.86491 47.0532 1
      vertex 5.86491 48.1968 1
    endloop
  endfacet
  facet normal 0 0 1
    outer loop
      vertex 5.79041 48.4748 1
      vertex 5.79041 46.7752 1
      vertex 5.86491 47.0532 1
    endloop
  endfacet
  facet normal 0 0 1
    outer loop
      vertex 5.68725 48.7435 1
      vertex 5.79041 46.7752 1
      vertex 5.79041 48.4748 1
    endloop
  endfacet
  facet normal 0 0 1
    outer loop
      vertex 5.68725 48.7435 1
      vertex 5.68725 46.5065 1
      vertex 5.79041 46.7752 1
    endloop
  endfacet
  facet normal 0 0 1
    outer loop
      vertex 5.55657 49 1
      vertex 5.68725 46.5065 1
      vertex 5.68725 48.7435 1
    endloop
  endfacet
  facet normal 0 0 1
    outer loop
      vertex 5.55657 49 1
      vertex 5.55657 46.25 1
      vertex 5.68725 46.5065 1
    endloop
  endfacet
  facet normal 0 0 1
    outer loop
      vertex 5.3998 49.2414 1
      vertex 5.55657 46.25 1
      vertex 5.55657 49 1
    endloop
  endfacet
  facet normal 0 0 1
    outer loop
      vertex 5.3998 49.2414 1
      vertex 5.3998 46.0086 1
      vertex 5.55657 46.25 1
    endloop
  endfacet
  facet normal 0 0 1
    outer loop
      vertex 5.21865 49.4651 1
      vertex 5.3998 46.0086 1
      vertex 5.3998 49.2414 1
    endloop
  endfacet
  facet normal 0 0 1
    outer loop
      vertex 5.21865 49.4651 1
      vertex 5.21865 45.7849 1
      vertex 5.3998 46.0086 1
    endloop
  endfacet
  facet normal 0 0 1
    outer loop
      vertex 5.01511 49.6686 1
      vertex 5.21865 45.7849 1
      vertex 5.21865 49.4651 1
    endloop
  endfacet
  facet normal 0 0 1
    outer loop
      vertex 5.01511 49.6686 1
      vertex 5.01511 45.5814 1
      vertex 5.21865 45.7849 1
    endloop
  endfacet
  facet normal 0 0 1
    outer loop
      vertex 4.79141 49.8498 1
      vertex 5.01511 45.5814 1
      vertex 5.01511 49.6686 1
    endloop
  endfacet
  facet normal 0 0 1
    outer loop
      vertex 4.79141 49.8498 1
      vertex 4.79141 45.4002 1
      vertex 5.01511 45.5814 1
    endloop
  endfacet
  facet normal 0 0 1
    outer loop
      vertex 4.55 50.0066 1
      vertex 4.79141 45.4002 1
      vertex 4.79141 49.8498 1
    endloop
  endfacet
  facet normal 0 0 1
    outer loop
      vertex 4.55 50.0066 1
      vertex 4.55 45.2434 1
      vertex 4.79141 45.4002 1
    endloop
  endfacet
  facet normal 0 0 1
    outer loop
      vertex 4.29353 50.1372 1
      vertex 4.55 45.2434 1
      vertex 4.55 50.0066 1
    endloop
  endfacet
  facet normal 0 0 1
    outer loop
      vertex 4.29353 50.1372 1
      vertex 4.29353 45.1127 1
      vertex 4.55 45.2434 1
    endloop
  endfacet
  facet normal 0 0 1
    outer loop
      vertex 4.0248 50.2404 1
      vertex 4.29353 45.1127 1
      vertex 4.29353 50.1372 1
    endloop
  endfacet
  facet normal 0 0 1
    outer loop
      vertex 4.0248 50.2404 1
      vertex 4.0248 45.0096 1
      vertex 4.29353 45.1127 1
    endloop
  endfacet
  facet normal 0 0 1
    outer loop
      vertex 3.74676 50.3149 1
      vertex 4.0248 45.0096 1
      vertex 4.0248 50.2404 1
    endloop
  endfacet
  facet normal 0 0 1
    outer loop
      vertex 3.74676 50.3149 1
      vertex 3.74676 44.9351 1
      vertex 4.0248 45.0096 1
    endloop
  endfacet
  facet normal 0 0 1
    outer loop
      vertex 3.46245 50.3599 1
      vertex 3.74676 44.9351 1
      vertex 3.74676 50.3149 1
    endloop
  endfacet
  facet normal 0 0 1
    outer loop
      vertex 3.46245 50.3599 1
      vertex 3.46245 44.8901 1
      vertex 3.74676 44.9351 1
    endloop
  endfacet
  facet normal 0 0 1
    outer loop
      vertex 3.175 50.375 1
      vertex 3.46245 44.8901 1
      vertex 3.46245 50.3599 1
    endloop
  endfacet
  facet normal 0 0 1
    outer loop
      vertex 3.175 50.375 1
      vertex 3.175 44.875 1
      vertex 3.46245 44.8901 1
    endloop
  endfacet
  facet normal -0 0 1
    outer loop
      vertex 2.88755 50.3599 1
      vertex 3.175 44.875 1
      vertex 3.175 50.375 1
    endloop
  endfacet
  facet normal 0 0 1
    outer loop
      vertex 2.88755 50.3599 1
      vertex 2.88755 44.8901 1
      vertex 3.175 44.875 1
    endloop
  endfacet
  facet normal -0 0 1
    outer loop
      vertex 2.60324 50.3149 1
      vertex 2.88755 44.8901 1
      vertex 2.88755 50.3599 1
    endloop
  endfacet
  facet normal 0 0 1
    outer loop
      vertex 2.60324 50.3149 1
      vertex 2.60324 44.9351 1
      vertex 2.88755 44.8901 1
    endloop
  endfacet
  facet normal -0 0 1
    outer loop
      vertex 2.3252 50.2404 1
      vertex 2.60324 44.9351 1
      vertex 2.60324 50.3149 1
    endloop
  endfacet
  facet normal 0 0 1
    outer loop
      vertex 2.3252 50.2404 1
      vertex 2.3252 45.0096 1
      vertex 2.60324 44.9351 1
    endloop
  endfacet
  facet normal -0 0 1
    outer loop
      vertex 2.05647 50.1372 1
      vertex 2.3252 45.0096 1
      vertex 2.3252 50.2404 1
    endloop
  endfacet
  facet normal 0 0 1
    outer loop
      vertex 2.05647 50.1372 1
      vertex 2.05647 45.1127 1
      vertex 2.3252 45.0096 1
    endloop
  endfacet
  facet normal -0 0 1
    outer loop
      vertex 1.8 50.0066 1
      vertex 2.05647 45.1127 1
      vertex 2.05647 50.1372 1
    endloop
  endfacet
  facet normal 0 0 1
    outer loop
      vertex 1.8 50.0066 1
      vertex 1.8 45.2434 1
      vertex 2.05647 45.1127 1
    endloop
  endfacet
  facet normal -0 0 1
    outer loop
      vertex 1.55859 49.8498 1
      vertex 1.8 45.2434 1
      vertex 1.8 50.0066 1
    endloop
  endfacet
  facet normal 0 0 1
    outer loop
      vertex 1.55859 49.8498 1
      vertex 1.55859 45.4002 1
      vertex 1.8 45.2434 1
    endloop
  endfacet
  facet normal -0 0 1
    outer loop
      vertex 1.33489 49.6686 1
      vertex 1.55859 45.4002 1
      vertex 1.55859 49.8498 1
    endloop
  endfacet
  facet normal 0 0 1
    outer loop
      vertex 1.33489 49.6686 1
      vertex 1.33489 45.5814 1
      vertex 1.55859 45.4002 1
    endloop
  endfacet
  facet normal -0 0 1
    outer loop
      vertex 1.13135 49.4651 1
      vertex 1.33489 45.5814 1
      vertex 1.33489 49.6686 1
    endloop
  endfacet
  facet normal 0 0 1
    outer loop
      vertex 1.13135 49.4651 1
      vertex 1.13135 45.7849 1
      vertex 1.33489 45.5814 1
    endloop
  endfacet
  facet normal -0 0 1
    outer loop
      vertex 0.950203 49.2414 1
      vertex 1.13135 45.7849 1
      vertex 1.13135 49.4651 1
    endloop
  endfacet
  facet normal 0 0 1
    outer loop
      vertex 0.950203 49.2414 1
      vertex 0.950203 46.0086 1
      vertex 1.13135 45.7849 1
    endloop
  endfacet
  facet normal -0 0 1
    outer loop
      vertex 0.793429 49 1
      vertex 0.950203 46.0086 1
      vertex 0.950203 49.2414 1
    endloop
  endfacet
  facet normal 0 0 1
    outer loop
      vertex 0.793429 49 1
      vertex 0.793429 46.25 1
      vertex 0.950203 46.0086 1
    endloop
  endfacet
  facet normal -0 0 1
    outer loop
      vertex 0.662749 48.7435 1
      vertex 0.793429 46.25 1
      vertex 0.793429 49 1
    endloop
  endfacet
  facet normal 0 0 1
    outer loop
      vertex 0.662749 48.7435 1
      vertex 0.662749 46.5065 1
      vertex 0.793429 46.25 1
    endloop
  endfacet
  facet normal -0 0 1
    outer loop
      vertex 0.559594 48.4748 1
      vertex 0.662749 46.5065 1
      vertex 0.662749 48.7435 1
    endloop
  endfacet
  facet normal 0 0 1
    outer loop
      vertex 0.559594 48.4748 1
      vertex 0.559594 46.7752 1
      vertex 0.662749 46.5065 1
    endloop
  endfacet
  facet normal -0 0 1
    outer loop
      vertex 0.485094 48.1968 1
      vertex 0.559594 46.7752 1
      vertex 0.559594 48.4748 1
    endloop
  endfacet
  facet normal 0 0 1
    outer loop
      vertex 0.485094 48.1968 1
      vertex 0.485094 47.0532 1
      vertex 0.559594 46.7752 1
    endloop
  endfacet
  facet normal -0 0 1
    outer loop
      vertex 0.440064 47.9125 1
      vertex 0.485094 47.0532 1
      vertex 0.485094 48.1968 1
    endloop
  endfacet
  facet normal 0 0 1
    outer loop
      vertex 0.440064 47.9125 1
      vertex 0.440064 47.3375 1
      vertex 0.485094 47.0532 1
    endloop
  endfacet
  facet normal 0 -0 1
    outer loop
      vertex 0.440064 47.3375 1
      vertex 0.440064 47.9125 1
      vertex 0.424999 47.625 1
    endloop
  endfacet
  facet normal -0.987693 0.156405 0
    outer loop
      vertex 5.86491 47.0532 1
      vertex 5.90993 47.3375 6.35
      vertex 5.90993 47.3375 1
    endloop
  endfacet
  facet normal -0.987693 0.156405 0
    outer loop
      vertex 5.90993 47.3375 6.35
      vertex 5.86491 47.0532 1
      vertex 5.86491 47.0532 6.35
    endloop
  endfacet
  facet normal -0.965917 0.258852 0
    outer loop
      vertex 5.79041 46.7752 1
      vertex 5.86491 47.0532 6.35
      vertex 5.86491 47.0532 1
    endloop
  endfacet
  facet normal -0.965917 0.258852 0
    outer loop
      vertex 5.86491 47.0532 6.35
      vertex 5.79041 46.7752 1
      vertex 5.79041 46.7752 6.35
    endloop
  endfacet
  facet normal -0.998629 0.0523455 0
    outer loop
      vertex 5.90993 47.3375 1
      vertex 5.925 47.625 6.35
      vertex 5.925 47.625 1
    endloop
  endfacet
  facet normal -0.998629 0.0523455 0
    outer loop
      vertex 5.925 47.625 6.35
      vertex 5.90993 47.3375 1
      vertex 5.90993 47.3375 6.35
    endloop
  endfacet
  facet normal -0.707037 0.707176 0
    outer loop
      vertex 5.21865 45.7849 1
      vertex 5.01511 45.5814 6.35
      vertex 5.21865 45.7849 6.35
    endloop
  endfacet
  facet normal -0.707037 0.707176 0
    outer loop
      vertex 5.01511 45.5814 6.35
      vertex 5.21865 45.7849 1
      vertex 5.01511 45.5814 1
    endloop
  endfacet
  facet normal -0.838666 0.544646 0
    outer loop
      vertex 5.3998 46.0086 1
      vertex 5.55657 46.25 6.35
      vertex 5.55657 46.25 1
    endloop
  endfacet
  facet normal -0.838666 0.544646 0
    outer loop
      vertex 5.55657 46.25 6.35
      vertex 5.3998 46.0086 1
      vertex 5.3998 46.0086 6.35
    endloop
  endfacet
  facet normal 0.965917 0.258852 0
    outer loop
      vertex 0.559594 46.7752 6.35
      vertex 0.485094 47.0532 1
      vertex 0.485094 47.0532 6.35
    endloop
  endfacet
  facet normal 0.965917 0.258852 0
    outer loop
      vertex 0.485094 47.0532 1
      vertex 0.559594 46.7752 6.35
      vertex 0.559594 46.7752 1
    endloop
  endfacet
  facet normal 0.99863 0.0523282 0
    outer loop
      vertex 0.440064 47.3375 6.35
      vertex 0.424999 47.625 1
      vertex 0.424999 47.625 6.35
    endloop
  endfacet
  facet normal 0.99863 0.0523282 0
    outer loop
      vertex 0.424999 47.625 1
      vertex 0.440064 47.3375 6.35
      vertex 0.440064 47.3375 1
    endloop
  endfacet
  facet normal -0.454051 0.890976 0
    outer loop
      vertex 4.55 45.2434 1
      vertex 4.29353 45.1127 6.35
      vertex 4.55 45.2434 6.35
    endloop
  endfacet
  facet normal -0.454051 0.890976 0
    outer loop
      vertex 4.29353 45.1127 6.35
      vertex 4.55 45.2434 1
      vertex 4.29353 45.1127 1
    endloop
  endfacet
  facet normal -0.544704 0.838628 0
    outer loop
      vertex 4.79141 45.4002 1
      vertex 4.55 45.2434 6.35
      vertex 4.79141 45.4002 6.35
    endloop
  endfacet
  facet normal -0.544704 0.838628 0
    outer loop
      vertex 4.55 45.2434 6.35
      vertex 4.79141 45.4002 1
      vertex 4.55 45.2434 1
    endloop
  endfacet
  facet normal -0.629428 0.777059 0
    outer loop
      vertex 5.01511 45.5814 1
      vertex 4.79141 45.4002 6.35
      vertex 5.01511 45.5814 6.35
    endloop
  endfacet
  facet normal -0.629428 0.777059 0
    outer loop
      vertex 4.79141 45.4002 6.35
      vertex 5.01511 45.5814 1
      vertex 4.79141 45.4002 1
    endloop
  endfacet
  facet normal 0.891025 0.453954 0
    outer loop
      vertex 0.793429 46.25 6.35
      vertex 0.662749 46.5065 1
      vertex 0.662749 46.5065 6.35
    endloop
  endfacet
  facet normal 0.891025 0.453954 0
    outer loop
      vertex 0.662749 46.5065 1
      vertex 0.793429 46.25 6.35
      vertex 0.793429 46.25 1
    endloop
  endfacet
  facet normal 0.707037 0.707176 -0
    outer loop
      vertex 1.33489 45.5814 1
      vertex 1.13135 45.7849 6.35
      vertex 1.33489 45.5814 6.35
    endloop
  endfacet
  facet normal 0.707037 0.707176 0
    outer loop
      vertex 1.13135 45.7849 6.35
      vertex 1.33489 45.5814 1
      vertex 1.13135 45.7849 1
    endloop
  endfacet
  facet normal 0.777149 0.629317 0
    outer loop
      vertex 1.13135 45.7849 6.35
      vertex 0.950203 46.0086 1
      vertex 0.950203 46.0086 6.35
    endloop
  endfacet
  facet normal 0.777149 0.629317 0
    outer loop
      vertex 0.950203 46.0086 1
      vertex 1.13135 45.7849 6.35
      vertex 1.13135 45.7849 1
    endloop
  endfacet
  facet normal 0.933568 0.3584 0
    outer loop
      vertex 0.662749 46.5065 6.35
      vertex 0.559594 46.7752 1
      vertex 0.559594 46.7752 6.35
    endloop
  endfacet
  facet normal 0.933568 0.3584 0
    outer loop
      vertex 0.559594 46.7752 1
      vertex 0.662749 46.5065 6.35
      vertex 0.662749 46.5065 1
    endloop
  endfacet
  facet normal 0.987688 0.156439 0
    outer loop
      vertex 0.485094 47.0532 6.35
      vertex 0.440064 47.3375 1
      vertex 0.440064 47.3375 6.35
    endloop
  endfacet
  facet normal 0.987688 0.156439 0
    outer loop
      vertex 0.440064 47.3375 1
      vertex 0.485094 47.0532 6.35
      vertex 0.485094 47.0532 1
    endloop
  endfacet
  facet normal -0.258817 0.965926 0
    outer loop
      vertex 4.0248 45.0096 1
      vertex 3.74676 44.9351 6.35
      vertex 4.0248 45.0096 6.35
    endloop
  endfacet
  facet normal -0.258817 0.965926 0
    outer loop
      vertex 3.74676 44.9351 6.35
      vertex 4.0248 45.0096 1
      vertex 3.74676 44.9351 1
    endloop
  endfacet
  facet normal -0.156332 0.987705 0
    outer loop
      vertex 3.74676 44.9351 1
      vertex 3.46245 44.8901 6.35
      vertex 3.74676 44.9351 6.35
    endloop
  endfacet
  facet normal -0.156332 0.987705 0
    outer loop
      vertex 3.46245 44.8901 6.35
      vertex 3.74676 44.9351 1
      vertex 3.46245 44.8901 1
    endloop
  endfacet
  facet normal 0.629428 0.777059 -0
    outer loop
      vertex 1.55859 45.4002 1
      vertex 1.33489 45.5814 6.35
      vertex 1.55859 45.4002 6.35
    endloop
  endfacet
  facet normal 0.629428 0.777059 0
    outer loop
      vertex 1.33489 45.5814 6.35
      vertex 1.55859 45.4002 1
      vertex 1.33489 45.5814 1
    endloop
  endfacet
  facet normal 0.544704 0.838628 -0
    outer loop
      vertex 1.8 45.2434 1
      vertex 1.55859 45.4002 6.35
      vertex 1.8 45.2434 6.35
    endloop
  endfacet
  facet normal 0.544704 0.838628 0
    outer loop
      vertex 1.55859 45.4002 6.35
      vertex 1.8 45.2434 1
      vertex 1.55859 45.4002 1
    endloop
  endfacet
  facet normal 0.358199 0.933645 -0
    outer loop
      vertex 2.3252 45.0096 1
      vertex 2.05647 45.1127 6.35
      vertex 2.3252 45.0096 6.35
    endloop
  endfacet
  facet normal 0.358199 0.933645 0
    outer loop
      vertex 2.05647 45.1127 6.35
      vertex 2.3252 45.0096 1
      vertex 2.05647 45.1127 1
    endloop
  endfacet
  facet normal 0.454051 0.890976 -0
    outer loop
      vertex 2.05647 45.1127 1
      vertex 1.8 45.2434 6.35
      vertex 2.05647 45.1127 6.35
    endloop
  endfacet
  facet normal 0.454051 0.890976 0
    outer loop
      vertex 1.8 45.2434 6.35
      vertex 2.05647 45.1127 1
      vertex 1.8 45.2434 1
    endloop
  endfacet
  facet normal 0.258817 0.965926 -0
    outer loop
      vertex 2.60324 44.9351 1
      vertex 2.3252 45.0096 6.35
      vertex 2.60324 44.9351 6.35
    endloop
  endfacet
  facet normal 0.258817 0.965926 0
    outer loop
      vertex 2.3252 45.0096 6.35
      vertex 2.60324 44.9351 1
      vertex 2.3252 45.0096 1
    endloop
  endfacet
  facet normal 0.156332 0.987705 -0
    outer loop
      vertex 2.88755 44.8901 1
      vertex 2.60324 44.9351 6.35
      vertex 2.88755 44.8901 6.35
    endloop
  endfacet
  facet normal 0.156332 0.987705 0
    outer loop
      vertex 2.60324 44.9351 6.35
      vertex 2.88755 44.8901 1
      vertex 2.60324 44.9351 1
    endloop
  endfacet
  facet normal 0.0524585 0.998623 -0
    outer loop
      vertex 3.175 44.875 1
      vertex 2.88755 44.8901 6.35
      vertex 3.175 44.875 6.35
    endloop
  endfacet
  facet normal 0.0524585 0.998623 0
    outer loop
      vertex 2.88755 44.8901 6.35
      vertex 3.175 44.875 1
      vertex 2.88755 44.8901 1
    endloop
  endfacet
  facet normal 1 -0 0
    outer loop
      vertex 1 1 6.35
      vertex 1 12.125 1
      vertex 1 12.125 6.35
    endloop
  endfacet
  facet normal 1 0 0
    outer loop
      vertex 1 12.125 1
      vertex 1 1 6.35
      vertex 1 1 1
    endloop
  endfacet
  facet normal -1 0 0
    outer loop
      vertex 5.35 1 1
      vertex 5.35 12.125 6.35
      vertex 5.35 12.125 1
    endloop
  endfacet
  facet normal -1 -0 0
    outer loop
      vertex 5.35 12.125 6.35
      vertex 5.35 1 1
      vertex 5.35 1 6.35
    endloop
  endfacet
  facet normal 0 -1 0
    outer loop
      vertex 1 12.125 1
      vertex 5.35 12.125 6.35
      vertex 1 12.125 6.35
    endloop
  endfacet
  facet normal 0 -1 -0
    outer loop
      vertex 5.35 12.125 6.35
      vertex 1 12.125 1
      vertex 5.35 12.125 1
    endloop
  endfacet
  facet normal -0 0 1
    outer loop
      vertex 1 12.125 1
      vertex 5.35 1 1
      vertex 5.35 12.125 1
    endloop
  endfacet
  facet normal 0 0 1
    outer loop
      vertex 5.35 1 1
      vertex 1 12.125 1
      vertex 1 1 1
    endloop
  endfacet
  facet normal 0 1 -0
    outer loop
      vertex 5.35 1 1
      vertex 1 1 6.35
      vertex 5.35 1 6.35
    endloop
  endfacet
  facet normal 0 1 0
    outer loop
      vertex 1 1 6.35
      vertex 5.35 1 1
      vertex 1 1 1
    endloop
  endfacet
  facet normal 1 -0 0
    outer loop
      vertex 1 19.625 6.35
      vertex 1 43.875 1
      vertex 1 43.875 6.35
    endloop
  endfacet
  facet normal 1 0 0
    outer loop
      vertex 1 43.875 1
      vertex 1 19.625 6.35
      vertex 1 19.625 1
    endloop
  endfacet
  facet normal -1 0 0
    outer loop
      vertex 5.35 19.625 1
      vertex 5.35 43.875 6.35
      vertex 5.35 43.875 1
    endloop
  endfacet
  facet normal -1 -0 0
    outer loop
      vertex 5.35 43.875 6.35
      vertex 5.35 19.625 1
      vertex 5.35 19.625 6.35
    endloop
  endfacet
  facet normal -0 0 1
    outer loop
      vertex 1 43.875 1
      vertex 5.35 19.625 1
      vertex 5.35 43.875 1
    endloop
  endfacet
  facet normal 0 0 1
    outer loop
      vertex 5.35 19.625 1
      vertex 1 43.875 1
      vertex 1 19.625 1
    endloop
  endfacet
  facet normal 0 1 -0
    outer loop
      vertex 5.35 19.625 1
      vertex 1 19.625 6.35
      vertex 5.35 19.625 6.35
    endloop
  endfacet
  facet normal 0 1 0
    outer loop
      vertex 1 19.625 6.35
      vertex 5.35 19.625 1
      vertex 1 19.625 1
    endloop
  endfacet
  facet normal 0 -1 0
    outer loop
      vertex 1 43.875 1
      vertex 5.35 43.875 6.35
      vertex 1 43.875 6.35
    endloop
  endfacet
  facet normal 0 -1 -0
    outer loop
      vertex 5.35 43.875 6.35
      vertex 1 43.875 1
      vertex 5.35 43.875 1
    endloop
  endfacet
  facet normal 1 -0 0
    outer loop
      vertex 1 51.375 6.35
      vertex 1 62.5 1
      vertex 1 62.5 6.35
    endloop
  endfacet
  facet normal 1 0 0
    outer loop
      vertex 1 62.5 1
      vertex 1 51.375 6.35
      vertex 1 51.375 1
    endloop
  endfacet
  facet normal -1 0 0
    outer loop
      vertex 5.35 51.375 1
      vertex 5.35 62.5 6.35
      vertex 5.35 62.5 1
    endloop
  endfacet
  facet normal -1 -0 0
    outer loop
      vertex 5.35 62.5 6.35
      vertex 5.35 51.375 1
      vertex 5.35 51.375 6.35
    endloop
  endfacet
  facet normal 0 -1 0
    outer loop
      vertex 1 62.5 1
      vertex 5.35 62.5 6.35
      vertex 1 62.5 6.35
    endloop
  endfacet
  facet normal 0 -1 -0
    outer loop
      vertex 5.35 62.5 6.35
      vertex 1 62.5 1
      vertex 5.35 62.5 1
    endloop
  endfacet
  facet normal -0 0 1
    outer loop
      vertex 1 62.5 1
      vertex 5.35 51.375 1
      vertex 5.35 62.5 1
    endloop
  endfacet
  facet normal 0 0 1
    outer loop
      vertex 5.35 51.375 1
      vertex 1 62.5 1
      vertex 1 51.375 1
    endloop
  endfacet
  facet normal 0 1 -0
    outer loop
      vertex 5.35 51.375 1
      vertex 1 51.375 6.35
      vertex 5.35 51.375 6.35
    endloop
  endfacet
  facet normal 0 1 0
    outer loop
      vertex 1 51.375 6.35
      vertex 5.35 51.375 1
      vertex 1 51.375 1
    endloop
  endfacet
  facet normal -1 0 0
    outer loop
      vertex 0 0 0
      vertex 0 63.5 6.35
      vertex 0 63.5 0
    endloop
  endfacet
  facet normal -1 -0 0
    outer loop
      vertex 0 63.5 6.35
      vertex 0 0 0
      vertex 0 0 6.35
    endloop
  endfacet
  facet normal -0 0 1
    outer loop
      vertex 5.21865 14.0349 6.35
      vertex 5.35 12.125 6.35
      vertex 5.3998 14.2586 6.35
    endloop
  endfacet
  facet normal -0 0 1
    outer loop
      vertex 5.01511 13.8314 6.35
      vertex 5.35 12.125 6.35
      vertex 5.21865 14.0349 6.35
    endloop
  endfacet
  facet normal -0 0 1
    outer loop
      vertex 4.79141 13.6502 6.35
      vertex 5.35 12.125 6.35
      vertex 5.01511 13.8314 6.35
    endloop
  endfacet
  facet normal -0 0 1
    outer loop
      vertex 4.55 13.4934 6.35
      vertex 5.35 12.125 6.35
      vertex 4.79141 13.6502 6.35
    endloop
  endfacet
  facet normal -0 0 1
    outer loop
      vertex 4.29353 13.3627 6.35
      vertex 5.35 12.125 6.35
      vertex 4.55 13.4934 6.35
    endloop
  endfacet
  facet normal -0 0 1
    outer loop
      vertex 4.0248 13.2596 6.35
      vertex 5.35 12.125 6.35
      vertex 4.29353 13.3627 6.35
    endloop
  endfacet
  facet normal -0 0 1
    outer loop
      vertex 3.74676 13.1851 6.35
      vertex 5.35 12.125 6.35
      vertex 4.0248 13.2596 6.35
    endloop
  endfacet
  facet normal -0 0 1
    outer loop
      vertex 3.46245 13.1401 6.35
      vertex 5.35 12.125 6.35
      vertex 3.74676 13.1851 6.35
    endloop
  endfacet
  facet normal -0 0 1
    outer loop
      vertex 3.175 13.125 6.35
      vertex 5.35 12.125 6.35
      vertex 3.46245 13.1401 6.35
    endloop
  endfacet
  facet normal 0 0 1
    outer loop
      vertex 1 12.125 6.35
      vertex 3.175 13.125 6.35
      vertex 2.88755 13.1401 6.35
    endloop
  endfacet
  facet normal 0 0 1
    outer loop
      vertex 1 12.125 6.35
      vertex 2.88755 13.1401 6.35
      vertex 2.60324 13.1851 6.35
    endloop
  endfacet
  facet normal 0 0 1
    outer loop
      vertex 1 12.125 6.35
      vertex 2.60324 13.1851 6.35
      vertex 2.3252 13.2596 6.35
    endloop
  endfacet
  facet normal 0 0 1
    outer loop
      vertex 3.175 13.125 6.35
      vertex 1 12.125 6.35
      vertex 5.35 12.125 6.35
    endloop
  endfacet
  facet normal 0 0 1
    outer loop
      vertex 2.05647 13.3627 6.35
      vertex 1 12.125 6.35
      vertex 2.3252 13.2596 6.35
    endloop
  endfacet
  facet normal 0 0 1
    outer loop
      vertex 1.8 13.4934 6.35
      vertex 1 12.125 6.35
      vertex 2.05647 13.3627 6.35
    endloop
  endfacet
  facet normal 0 0 1
    outer loop
      vertex 1.55859 13.6502 6.35
      vertex 1 12.125 6.35
      vertex 1.8 13.4934 6.35
    endloop
  endfacet
  facet normal 0 0 1
    outer loop
      vertex 1.33489 13.8314 6.35
      vertex 1 12.125 6.35
      vertex 1.55859 13.6502 6.35
    endloop
  endfacet
  facet normal 0 0 1
    outer loop
      vertex 1.13135 14.0349 6.35
      vertex 1 12.125 6.35
      vertex 1.33489 13.8314 6.35
    endloop
  endfacet
  facet normal 0 0 1
    outer loop
      vertex 0.793429 14.5 6.35
      vertex 1 12.125 6.35
      vertex 0.950203 14.2586 6.35
    endloop
  endfacet
  facet normal 0 0 1
    outer loop
      vertex 0.950203 14.2586 6.35
      vertex 1 12.125 6.35
      vertex 1.13135 14.0349 6.35
    endloop
  endfacet
  facet normal -0 0 1
    outer loop
      vertex 5.90993 47.3375 6.35
      vertex 5.925 15.875 6.35
      vertex 5.925 47.625 6.35
    endloop
  endfacet
  facet normal 0 0 1
    outer loop
      vertex 5.90993 47.3375 6.35
      vertex 5.90993 16.1625 6.35
      vertex 5.925 15.875 6.35
    endloop
  endfacet
  facet normal -0 0 1
    outer loop
      vertex 5.86491 47.0532 6.35
      vertex 5.90993 16.1625 6.35
      vertex 5.90993 47.3375 6.35
    endloop
  endfacet
  facet normal 0 0 1
    outer loop
      vertex 5.86491 47.0532 6.35
      vertex 5.86491 16.4468 6.35
      vertex 5.90993 16.1625 6.35
    endloop
  endfacet
  facet normal 0 0 1
    outer loop
      vertex 5.35 43.875 6.35
      vertex 5.86491 47.0532 6.35
      vertex 5.79041 46.7752 6.35
    endloop
  endfacet
  facet normal 0 0 1
    outer loop
      vertex 5.86491 47.0532 6.35
      vertex 5.35 43.875 6.35
      vertex 5.86491 16.4468 6.35
    endloop
  endfacet
  facet normal 0 0 1
    outer loop
      vertex 5.35 43.875 6.35
      vertex 5.79041 46.7752 6.35
      vertex 5.68725 46.5065 6.35
    endloop
  endfacet
  facet normal -0 0 1
    outer loop
      vertex 5.35 19.625 6.35
      vertex 5.86491 16.4468 6.35
      vertex 5.35 43.875 6.35
    endloop
  endfacet
  facet normal 0 0 1
    outer loop
      vertex 5.35 43.875 6.35
      vertex 5.68725 46.5065 6.35
      vertex 5.55657 46.25 6.35
    endloop
  endfacet
  facet normal 0 0 1
    outer loop
      vertex 5.86491 16.4468 6.35
      vertex 5.35 19.625 6.35
      vertex 5.79041 16.7248 6.35
    endloop
  endfacet
  facet normal 0 0 1
    outer loop
      vertex 5.35 43.875 6.35
      vertex 5.55657 46.25 6.35
      vertex 5.3998 46.0086 6.35
    endloop
  endfacet
  facet normal 0 0 1
    outer loop
      vertex 5.79041 16.7248 6.35
      vertex 5.35 19.625 6.35
      vertex 5.68725 16.9935 6.35
    endloop
  endfacet
  facet normal 0 0 1
    outer loop
      vertex 5.68725 16.9935 6.35
      vertex 5.35 19.625 6.35
      vertex 5.55657 17.25 6.35
    endloop
  endfacet
  facet normal -0 0 1
    outer loop
      vertex 5.21865 45.7849 6.35
      vertex 5.35 43.875 6.35
      vertex 5.3998 46.0086 6.35
    endloop
  endfacet
  facet normal -0 0 1
    outer loop
      vertex 5.01511 45.5814 6.35
      vertex 5.35 43.875 6.35
      vertex 5.21865 45.7849 6.35
    endloop
  endfacet
  facet normal -0 0 1
    outer loop
      vertex 4.79141 45.4002 6.35
      vertex 5.35 43.875 6.35
      vertex 5.01511 45.5814 6.35
    endloop
  endfacet
  facet normal -0 0 1
    outer loop
      vertex 4.55 45.2434 6.35
      vertex 5.35 43.875 6.35
      vertex 4.79141 45.4002 6.35
    endloop
  endfacet
  facet normal -0 0 1
    outer loop
      vertex 4.29353 45.1127 6.35
      vertex 5.35 43.875 6.35
      vertex 4.55 45.2434 6.35
    endloop
  endfacet
  facet normal -0 0 1
    outer loop
      vertex 4.0248 45.0096 6.35
      vertex 5.35 43.875 6.35
      vertex 4.29353 45.1127 6.35
    endloop
  endfacet
  facet normal -0 0 1
    outer loop
      vertex 3.74676 44.9351 6.35
      vertex 5.35 43.875 6.35
      vertex 4.0248 45.0096 6.35
    endloop
  endfacet
  facet normal -0 0 1
    outer loop
      vertex 3.46245 44.8901 6.35
      vertex 5.35 43.875 6.35
      vertex 3.74676 44.9351 6.35
    endloop
  endfacet
  facet normal -0 0 1
    outer loop
      vertex 3.175 44.875 6.35
      vertex 5.35 43.875 6.35
      vertex 3.46245 44.8901 6.35
    endloop
  endfacet
  facet normal 0 0 1
    outer loop
      vertex 1 43.875 6.35
      vertex 3.175 44.875 6.35
      vertex 2.88755 44.8901 6.35
    endloop
  endfacet
  facet normal 0 0 1
    outer loop
      vertex 1 43.875 6.35
      vertex 2.88755 44.8901 6.35
      vertex 2.60324 44.9351 6.35
    endloop
  endfacet
  facet normal 0 0 1
    outer loop
      vertex 1 43.875 6.35
      vertex 2.60324 44.9351 6.35
      vertex 2.3252 45.0096 6.35
    endloop
  endfacet
  facet normal 0 0 1
    outer loop
      vertex 3.175 44.875 6.35
      vertex 1 43.875 6.35
      vertex 5.35 43.875 6.35
    endloop
  endfacet
  facet normal 0 0 1
    outer loop
      vertex 2.05647 45.1127 6.35
      vertex 1 43.875 6.35
      vertex 2.3252 45.0096 6.35
    endloop
  endfacet
  facet normal 0 0 1
    outer loop
      vertex 1.8 45.2434 6.35
      vertex 1 43.875 6.35
      vertex 2.05647 45.1127 6.35
    endloop
  endfacet
  facet normal 0 0 1
    outer loop
      vertex 1.55859 45.4002 6.35
      vertex 1 43.875 6.35
      vertex 1.8 45.2434 6.35
    endloop
  endfacet
  facet normal 0 0 1
    outer loop
      vertex 1.33489 45.5814 6.35
      vertex 1 43.875 6.35
      vertex 1.55859 45.4002 6.35
    endloop
  endfacet
  facet normal 0 0 1
    outer loop
      vertex 1.13135 45.7849 6.35
      vertex 1 43.875 6.35
      vertex 1.33489 45.5814 6.35
    endloop
  endfacet
  facet normal 0 0 1
    outer loop
      vertex 0.793429 46.25 6.35
      vertex 1 43.875 6.35
      vertex 0.950203 46.0086 6.35
    endloop
  endfacet
  facet normal 0 0 1
    outer loop
      vertex 0.950203 46.0086 6.35
      vertex 1 43.875 6.35
      vertex 1.13135 45.7849 6.35
    endloop
  endfacet
  facet normal 0 0 1
    outer loop
      vertex 6.35 63.5 6.35
      vertex 5.925 47.625 6.35
      vertex 6.35 0 6.35
    endloop
  endfacet
  facet normal 0 0 1
    outer loop
      vertex 6.35 63.5 6.35
      vertex 5.90993 47.9125 6.35
      vertex 5.925 47.625 6.35
    endloop
  endfacet
  facet normal 0 0 1
    outer loop
      vertex 6.35 63.5 6.35
      vertex 5.86491 48.1968 6.35
      vertex 5.90993 47.9125 6.35
    endloop
  endfacet
  facet normal -0 0 1
    outer loop
      vertex 5.35 51.375 6.35
      vertex 5.86491 48.1968 6.35
      vertex 6.35 63.5 6.35
    endloop
  endfacet
  facet normal 0 0 1
    outer loop
      vertex 5.86491 48.1968 6.35
      vertex 5.35 51.375 6.35
      vertex 5.79041 48.4748 6.35
    endloop
  endfacet
  facet normal 0 0 1
    outer loop
      vertex 5.79041 48.4748 6.35
      vertex 5.35 51.375 6.35
      vertex 5.68725 48.7435 6.35
    endloop
  endfacet
  facet normal 0 0 1
    outer loop
      vertex 5.68725 48.7435 6.35
      vertex 5.35 51.375 6.35
      vertex 5.55657 49 6.35
    endloop
  endfacet
  facet normal 0 0 1
    outer loop
      vertex 5.35 51.375 6.35
      vertex 6.35 63.5 6.35
      vertex 5.35 62.5 6.35
    endloop
  endfacet
  facet normal 0 0 1
    outer loop
      vertex 6.35 63.5 6.35
      vertex 1 62.5 6.35
      vertex 5.35 62.5 6.35
    endloop
  endfacet
  facet normal 0 0 1
    outer loop
      vertex 0 63.5 6.35
      vertex 1 51.375 6.35
      vertex 1 62.5 6.35
    endloop
  endfacet
  facet normal 0 -0 1
    outer loop
      vertex 0.485094 48.1968 6.35
      vertex 1 51.375 6.35
      vertex 0 63.5 6.35
    endloop
  endfacet
  facet normal 0 0 1
    outer loop
      vertex 1 51.375 6.35
      vertex 0.793429 49 6.35
      vertex 0.950203 49.2414 6.35
    endloop
  endfacet
  facet normal 0 0 1
    outer loop
      vertex 1 51.375 6.35
      vertex 0.662749 48.7435 6.35
      vertex 0.793429 49 6.35
    endloop
  endfacet
  facet normal 0 0 1
    outer loop
      vertex 1 51.375 6.35
      vertex 0.559594 48.4748 6.35
      vertex 0.662749 48.7435 6.35
    endloop
  endfacet
  facet normal 0 0 1
    outer loop
      vertex 1 51.375 6.35
      vertex 0.485094 48.1968 6.35
      vertex 0.559594 48.4748 6.35
    endloop
  endfacet
  facet normal 0 0 1
    outer loop
      vertex 0.485094 48.1968 6.35
      vertex 0 63.5 6.35
      vertex 0.440064 47.9125 6.35
    endloop
  endfacet
  facet normal 0 0 1
    outer loop
      vertex 0.424999 47.625 6.35
      vertex 0 63.5 6.35
      vertex 0.424999 15.875 6.35
    endloop
  endfacet
  facet normal 0 0 1
    outer loop
      vertex 0.440064 47.9125 6.35
      vertex 0 63.5 6.35
      vertex 0.424999 47.625 6.35
    endloop
  endfacet
  facet normal -0 0 1
    outer loop
      vertex 0 63.5 6.35
      vertex 1 62.5 6.35
      vertex 6.35 63.5 6.35
    endloop
  endfacet
  facet normal -0 0 1
    outer loop
      vertex 5.925 15.875 6.35
      vertex 6.35 0 6.35
      vertex 5.925 47.625 6.35
    endloop
  endfacet
  facet normal -0 0 1
    outer loop
      vertex 5.90993 15.5875 6.35
      vertex 6.35 0 6.35
      vertex 5.925 15.875 6.35
    endloop
  endfacet
  facet normal -0 0 1
    outer loop
      vertex 5.86491 15.3032 6.35
      vertex 6.35 0 6.35
      vertex 5.90993 15.5875 6.35
    endloop
  endfacet
  facet normal 0 0 1
    outer loop
      vertex 5.35 12.125 6.35
      vertex 5.86491 15.3032 6.35
      vertex 5.79041 15.0252 6.35
    endloop
  endfacet
  facet normal 0 0 1
    outer loop
      vertex 5.35 12.125 6.35
      vertex 5.79041 15.0252 6.35
      vertex 5.68725 14.7565 6.35
    endloop
  endfacet
  facet normal 0 0 1
    outer loop
      vertex 5.35 12.125 6.35
      vertex 5.68725 14.7565 6.35
      vertex 5.55657 14.5 6.35
    endloop
  endfacet
  facet normal 0 0 1
    outer loop
      vertex 5.35 12.125 6.35
      vertex 5.55657 14.5 6.35
      vertex 5.3998 14.2586 6.35
    endloop
  endfacet
  facet normal 0 0 1
    outer loop
      vertex 5.86491 15.3032 6.35
      vertex 5.35 12.125 6.35
      vertex 6.35 0 6.35
    endloop
  endfacet
  facet normal -0 0 1
    outer loop
      vertex 5.35 1 6.35
      vertex 6.35 0 6.35
      vertex 5.35 12.125 6.35
    endloop
  endfacet
  facet normal -0 0 1
    outer loop
      vertex 1 1 6.35
      vertex 6.35 0 6.35
      vertex 5.35 1 6.35
    endloop
  endfacet
  facet normal 0 0 1
    outer loop
      vertex 0.662749 14.7565 6.35
      vertex 1 12.125 6.35
      vertex 0.793429 14.5 6.35
    endloop
  endfacet
  facet normal 0 0 1
    outer loop
      vertex 0.559594 15.0252 6.35
      vertex 1 12.125 6.35
      vertex 0.662749 14.7565 6.35
    endloop
  endfacet
  facet normal 0 0 1
    outer loop
      vertex 0.485094 15.3032 6.35
      vertex 1 12.125 6.35
      vertex 0.559594 15.0252 6.35
    endloop
  endfacet
  facet normal 0 0 1
    outer loop
      vertex 1 12.125 6.35
      vertex 0.485094 15.3032 6.35
      vertex 0 0 6.35
    endloop
  endfacet
  facet normal 0 0 1
    outer loop
      vertex 0 0 6.35
      vertex 0.485094 15.3032 6.35
      vertex 0.440064 15.5875 6.35
    endloop
  endfacet
  facet normal 0 0 1
    outer loop
      vertex 0 0 6.35
      vertex 0.440064 15.5875 6.35
      vertex 0.424999 15.875 6.35
    endloop
  endfacet
  facet normal 0 0 1
    outer loop
      vertex 1 1 6.35
      vertex 0 0 6.35
      vertex 6.35 0 6.35
    endloop
  endfacet
  facet normal 0 0 1
    outer loop
      vertex 1 12.125 6.35
      vertex 0 0 6.35
      vertex 1 1 6.35
    endloop
  endfacet
  facet normal 0 0 1
    outer loop
      vertex 0 0 6.35
      vertex 0.424999 15.875 6.35
      vertex 0 63.5 6.35
    endloop
  endfacet
  facet normal 0 0 1
    outer loop
      vertex 5.55657 49 6.35
      vertex 5.35 51.375 6.35
      vertex 5.3998 49.2414 6.35
    endloop
  endfacet
  facet normal 0 0 1
    outer loop
      vertex 5.35 51.375 6.35
      vertex 5.21865 49.4651 6.35
      vertex 5.3998 49.2414 6.35
    endloop
  endfacet
  facet normal 0 0 1
    outer loop
      vertex 5.35 51.375 6.35
      vertex 5.01511 49.6686 6.35
      vertex 5.21865 49.4651 6.35
    endloop
  endfacet
  facet normal 0 0 1
    outer loop
      vertex 5.35 51.375 6.35
      vertex 4.79141 49.8498 6.35
      vertex 5.01511 49.6686 6.35
    endloop
  endfacet
  facet normal 0 0 1
    outer loop
      vertex 5.35 51.375 6.35
      vertex 4.55 50.0066 6.35
      vertex 4.79141 49.8498 6.35
    endloop
  endfacet
  facet normal 0 0 1
    outer loop
      vertex 5.35 51.375 6.35
      vertex 4.29353 50.1372 6.35
      vertex 4.55 50.0066 6.35
    endloop
  endfacet
  facet normal 0 0 1
    outer loop
      vertex 5.35 51.375 6.35
      vertex 4.0248 50.2404 6.35
      vertex 4.29353 50.1372 6.35
    endloop
  endfacet
  facet normal 0 0 1
    outer loop
      vertex 5.35 51.375 6.35
      vertex 3.74676 50.3149 6.35
      vertex 4.0248 50.2404 6.35
    endloop
  endfacet
  facet normal 0 0 1
    outer loop
      vertex 5.35 51.375 6.35
      vertex 3.46245 50.3599 6.35
      vertex 3.74676 50.3149 6.35
    endloop
  endfacet
  facet normal 0 0 1
    outer loop
      vertex 5.35 51.375 6.35
      vertex 3.175 50.375 6.35
      vertex 3.46245 50.3599 6.35
    endloop
  endfacet
  facet normal -0 0 1
    outer loop
      vertex 1 51.375 6.35
      vertex 3.175 50.375 6.35
      vertex 5.35 51.375 6.35
    endloop
  endfacet
  facet normal 0 0 1
    outer loop
      vertex 3.175 50.375 6.35
      vertex 1 51.375 6.35
      vertex 2.88755 50.3599 6.35
    endloop
  endfacet
  facet normal 0 0 1
    outer loop
      vertex 2.88755 50.3599 6.35
      vertex 1 51.375 6.35
      vertex 2.60324 50.3149 6.35
    endloop
  endfacet
  facet normal 0 0 1
    outer loop
      vertex 2.60324 50.3149 6.35
      vertex 1 51.375 6.35
      vertex 2.3252 50.2404 6.35
    endloop
  endfacet
  facet normal 0 0 1
    outer loop
      vertex 1 51.375 6.35
      vertex 2.05647 50.1372 6.35
      vertex 2.3252 50.2404 6.35
    endloop
  endfacet
  facet normal 0 0 1
    outer loop
      vertex 1 51.375 6.35
      vertex 1.8 50.0066 6.35
      vertex 2.05647 50.1372 6.35
    endloop
  endfacet
  facet normal 0 0 1
    outer loop
      vertex 1 51.375 6.35
      vertex 1.55859 49.8498 6.35
      vertex 1.8 50.0066 6.35
    endloop
  endfacet
  facet normal 0 0 1
    outer loop
      vertex 1 51.375 6.35
      vertex 1.33489 49.6686 6.35
      vertex 1.55859 49.8498 6.35
    endloop
  endfacet
  facet normal 0 0 1
    outer loop
      vertex 1 51.375 6.35
      vertex 1.13135 49.4651 6.35
      vertex 1.33489 49.6686 6.35
    endloop
  endfacet
  facet normal 0 0 1
    outer loop
      vertex 1.13135 49.4651 6.35
      vertex 1 51.375 6.35
      vertex 0.950203 49.2414 6.35
    endloop
  endfacet
  facet normal 0 0 1
    outer loop
      vertex 5.55657 17.25 6.35
      vertex 5.35 19.625 6.35
      vertex 5.3998 17.4914 6.35
    endloop
  endfacet
  facet normal 0 0 1
    outer loop
      vertex 5.35 19.625 6.35
      vertex 5.21865 17.7151 6.35
      vertex 5.3998 17.4914 6.35
    endloop
  endfacet
  facet normal 0 0 1
    outer loop
      vertex 5.35 19.625 6.35
      vertex 5.01511 17.9186 6.35
      vertex 5.21865 17.7151 6.35
    endloop
  endfacet
  facet normal 0 0 1
    outer loop
      vertex 5.35 19.625 6.35
      vertex 4.79141 18.0998 6.35
      vertex 5.01511 17.9186 6.35
    endloop
  endfacet
  facet normal 0 0 1
    outer loop
      vertex 5.35 19.625 6.35
      vertex 4.55 18.2566 6.35
      vertex 4.79141 18.0998 6.35
    endloop
  endfacet
  facet normal 0 0 1
    outer loop
      vertex 5.35 19.625 6.35
      vertex 4.29353 18.3872 6.35
      vertex 4.55 18.2566 6.35
    endloop
  endfacet
  facet normal 0 0 1
    outer loop
      vertex 5.35 19.625 6.35
      vertex 4.0248 18.4904 6.35
      vertex 4.29353 18.3872 6.35
    endloop
  endfacet
  facet normal 0 0 1
    outer loop
      vertex 5.35 19.625 6.35
      vertex 3.74676 18.5649 6.35
      vertex 4.0248 18.4904 6.35
    endloop
  endfacet
  facet normal 0 0 1
    outer loop
      vertex 5.35 19.625 6.35
      vertex 3.46245 18.6099 6.35
      vertex 3.74676 18.5649 6.35
    endloop
  endfacet
  facet normal 0 0 1
    outer loop
      vertex 5.35 19.625 6.35
      vertex 3.175 18.625 6.35
      vertex 3.46245 18.6099 6.35
    endloop
  endfacet
  facet normal -0 0 1
    outer loop
      vertex 1 19.625 6.35
      vertex 3.175 18.625 6.35
      vertex 5.35 19.625 6.35
    endloop
  endfacet
  facet normal 0 0 1
    outer loop
      vertex 3.175 18.625 6.35
      vertex 1 19.625 6.35
      vertex 2.88755 18.6099 6.35
    endloop
  endfacet
  facet normal 0 0 1
    outer loop
      vertex 2.88755 18.6099 6.35
      vertex 1 19.625 6.35
      vertex 2.60324 18.5649 6.35
    endloop
  endfacet
  facet normal 0 0 1
    outer loop
      vertex 2.60324 18.5649 6.35
      vertex 1 19.625 6.35
      vertex 2.3252 18.4904 6.35
    endloop
  endfacet
  facet normal 0 0 1
    outer loop
      vertex 1 19.625 6.35
      vertex 2.05647 18.3872 6.35
      vertex 2.3252 18.4904 6.35
    endloop
  endfacet
  facet normal 0 0 1
    outer loop
      vertex 1 19.625 6.35
      vertex 1.8 18.2566 6.35
      vertex 2.05647 18.3872 6.35
    endloop
  endfacet
  facet normal 0 0 1
    outer loop
      vertex 1 19.625 6.35
      vertex 1.55859 18.0998 6.35
      vertex 1.8 18.2566 6.35
    endloop
  endfacet
  facet normal 0 0 1
    outer loop
      vertex 1 19.625 6.35
      vertex 1.33489 17.9186 6.35
      vertex 1.55859 18.0998 6.35
    endloop
  endfacet
  facet normal 0 0 1
    outer loop
      vertex 1 19.625 6.35
      vertex 1.13135 17.7151 6.35
      vertex 1.33489 17.9186 6.35
    endloop
  endfacet
  facet normal 0 0 1
    outer loop
      vertex 1 19.625 6.35
      vertex 0.950203 17.4914 6.35
      vertex 1.13135 17.7151 6.35
    endloop
  endfacet
  facet normal 0 0 1
    outer loop
      vertex 0.662749 46.5065 6.35
      vertex 1 43.875 6.35
      vertex 0.793429 46.25 6.35
    endloop
  endfacet
  facet normal 0 0 1
    outer loop
      vertex 0.559594 46.7752 6.35
      vertex 1 43.875 6.35
      vertex 0.662749 46.5065 6.35
    endloop
  endfacet
  facet normal 0 0 1
    outer loop
      vertex 1 19.625 6.35
      vertex 0.793429 17.25 6.35
      vertex 0.950203 17.4914 6.35
    endloop
  endfacet
  facet normal 0 0 1
    outer loop
      vertex 0.485094 47.0532 6.35
      vertex 1 43.875 6.35
      vertex 0.559594 46.7752 6.35
    endloop
  endfacet
  facet normal 0 0 1
    outer loop
      vertex 1 19.625 6.35
      vertex 0.662749 16.9935 6.35
      vertex 0.793429 17.25 6.35
    endloop
  endfacet
  facet normal 0 0 1
    outer loop
      vertex 1 43.875 6.35
      vertex 0.485094 47.0532 6.35
      vertex 1 19.625 6.35
    endloop
  endfacet
  facet normal 0 0 1
    outer loop
      vertex 1 19.625 6.35
      vertex 0.559594 16.7248 6.35
      vertex 0.662749 16.9935 6.35
    endloop
  endfacet
  facet normal 0 0 1
    outer loop
      vertex 0.485094 16.4468 6.35
      vertex 1 19.625 6.35
      vertex 0.485094 47.0532 6.35
    endloop
  endfacet
  facet normal 0 0 1
    outer loop
      vertex 1 19.625 6.35
      vertex 0.485094 16.4468 6.35
      vertex 0.559594 16.7248 6.35
    endloop
  endfacet
  facet normal 0 0 1
    outer loop
      vertex 0.440064 47.3375 6.35
      vertex 0.485094 16.4468 6.35
      vertex 0.485094 47.0532 6.35
    endloop
  endfacet
  facet normal 0 0 1
    outer loop
      vertex 0.440064 47.3375 6.35
      vertex 0.440064 16.1625 6.35
      vertex 0.485094 16.4468 6.35
    endloop
  endfacet
  facet normal 0 0 1
    outer loop
      vertex 0.424999 47.625 6.35
      vertex 0.440064 16.1625 6.35
      vertex 0.440064 47.3375 6.35
    endloop
  endfacet
  facet normal 0 0 1
    outer loop
      vertex 0.440064 16.1625 6.35
      vertex 0.424999 47.625 6.35
      vertex 0.424999 15.875 6.35
    endloop
  endfacet
  facet normal 1 -0 0
    outer loop
      vertex 6.35 0 6.35
      vertex 6.35 63.5 0
      vertex 6.35 63.5 6.35
    endloop
  endfacet
  facet normal 1 0 0
    outer loop
      vertex 6.35 63.5 0
      vertex 6.35 0 6.35
      vertex 6.35 0 0
    endloop
  endfacet
  facet normal 0 0 -1
    outer loop
      vertex 0 0 0
      vertex 6.35 63.5 0
      vertex 6.35 0 0
    endloop
  endfacet
  facet normal -0 0 -1
    outer loop
      vertex 6.35 63.5 0
      vertex 0 0 0
      vertex 0 63.5 0
    endloop
  endfacet
  facet normal 0 -1 0
    outer loop
      vertex 0 0 0
      vertex 6.35 0 6.35
      vertex 0 0 6.35
    endloop
  endfacet
  facet normal 0 -1 -0
    outer loop
      vertex 6.35 0 6.35
      vertex 0 0 0
      vertex 6.35 0 0
    endloop
  endfacet
  facet normal 0 1 -0
    outer loop
      vertex 6.35 63.5 0
      vertex 0 63.5 6.35
      vertex 6.35 63.5 6.35
    endloop
  endfacet
  facet normal 0 1 0
    outer loop
      vertex 0 63.5 6.35
      vertex 6.35 63.5 0
      vertex 0 63.5 0
    endloop
  endfacet
endsolid OpenSCAD_Model
